<svg height="512pt" viewBox="-9 0 512 512.00368" width="512pt" xmlns="http://www.w3.org/2000/svg"><path d="m118.664062 110.082031c.546876.765625 1.21875 1.433594 1.980469 1.980469 40.820313 29.152344 94.367188 94.355469 94.914063 95.011719 2.613281 3.167969 7.113281 4.027343 10.707031 2.039062 3.597656-1.984375 5.269531-6.246093 3.980469-10.144531-1.007813-3.03125-25.335938-74.882812-74.460938-124.015625-49.128906-49.136719-120.988281-73.5-124.023437-74.515625-3.910157-1.300781-8.1875.371094-10.175781 3.980469-1.984376 3.605469-1.113282 8.117187 2.074218 10.722656.648438.539063 65.871094 54.085937 95.003906 94.941406zm0 0"/><path d="m16.996094 230.746094c4.511718.019531 8.84375-1.761719 12.035156-4.949219l91.988281-91.992187c-3.5-2.898438-7-5.546876-10.328125-7.933594-2.316406-1.636719-4.335937-3.65625-5.972656-5.972656-2.386719-3.328126-5.035156-6.742188-7.847656-10.242188l-91.90625 91.988281c-4.851563 4.882813-6.296875 12.195313-3.667969 18.554688s8.820313 10.515625 15.699219 10.546875zm0 0"/><path d="m238.863281 221.015625c-1.332031 1.160156-2.789062 2.164063-4.351562 2.988281-3.773438 2.132813-8.039063 3.25-12.371094 3.242188-7.679687.015625-14.953125-3.433594-19.800781-9.386719-.765625-.9375-7.765625-9.386719-18.175782-21.164063-2.816406 6.488282-5.289062 13.3125-7.59375 20.480469 19.871094 7.855469 40.941407 12.246094 62.292969 12.972657zm0 0"/><path d="m318.222656 217.175781c-13.90625-43.605469-36.691406-74.066406-62.292968-79.699219v92.671876c21.355468-.726563 42.425781-5.117188 62.292968-12.972657zm0 0"/><path d="m176.570312 414.296875c13.996094 43.433594 36.695313 74.070313 62.292969 79.703125v-92.671875c-21.351562.726563-42.421875 5.113281-62.292969 12.96875zm0 0"/><path d="m162.234375 307.203125h76.628906v-59.902344c-22.929687-.808593-45.566406-5.425781-66.984375-13.65625-5.964844 24.082031-9.199218 48.757813-9.644531 73.558594zm0 0"/><path d="m171.960938 397.828125c21.390624-8.230469 44-12.84375 66.902343-13.652344v-59.90625h-76.714843c.484374 24.8125 3.777343 49.488281 9.8125 73.558594zm0 0"/><path d="m255.929688 384.257812c5.71875.171876 11.4375.597657 17.066406 1.28125v-1.535156c-.066406-21.4375 6.65625-42.347656 19.203125-59.734375h-36.269531zm0 0"/><path d="m259.515625 492.972656c15.019531-4.777344 29.355469-18.257812 41.386719-38.738281-1.453125-1.453125-2.816406-2.988281-4.183594-4.609375-9.664062-11.6875-16.652344-25.347656-20.480469-40.019531-.511719-2.136719-1.023437-4.355469-1.449219-6.65625-6.25-.914063-12.546874-1.480469-18.859374-1.707031v92.671874c.550781-.101562 1.09375-.246093 1.621093-.425781zm0 0"/><path d="m140.644531 151.128906c-11.457031 7.382813-22.101562 15.964844-31.742187 25.601563-.511719.511719-.941406 1.023437-1.535156 1.535156-74.980469 76.277344-74.980469 198.578125 0 274.859375l.082031.085938 1.539062 1.535156.167969.167968c35.859375 35.753907 84.199219 56.191407 134.828125 57.003907 1.109375.085937 2.304687.085937 3.414063.085937 1.109374 0 2.21875 0 3.328124-.085937 35.019532-.429688 69.261719-10.371094 99.070313-28.757813-12.980469-3.328125-25.167969-9.21875-35.839844-17.320312-4.757812 7.949218-10.367187 15.359375-16.726562 22.101562h-.082031c-3.183594.910156-6.394532 1.703125-9.609376 2.457032-1.460937.332031-2.929687.597656-4.386718.851562-1.707032.351562-3.457032.71875-5.195313 1.015625-2.066406.351563-4.15625.632813-6.25.90625-1.066406.144531-2.121093.304687-3.199219.433594-2.707031.308593-5.425781.546875-8.15625.71875-1.476562.101562-2.9375.261719-4.421874.324219v-.769532c-2.789063.691406-5.65625 1.046875-8.53125 1.058594-2.871094-.011719-5.730469-.328125-8.535157-.9375v.679688c-14.054687-.585938-27.984375-2.90625-41.472656-6.910157-16.910156-19.136719-29.433594-41.734375-36.691406-66.21875-12.914063 6.617188-24.601563 15.390625-34.558594 25.941407-4.183594-3.839844-8.195313-7.851563-12.035156-12.117188 12.023437-12.515625 26.144531-22.828125 41.730469-30.464844-6.714844-26.367187-10.296876-53.433594-10.667969-80.640625h-76.714844c-.171875-2.816406-.253906-5.632812-.253906-8.53125 0-2.902343.082031-5.71875.167969-8.535156h76.714843c.445313-27.183594 4.085938-54.21875 10.839844-80.554687-15.660156-7.671876-29.839844-18.042969-41.902344-30.632813 3.84375-4.269531 7.851563-8.277344 12.035157-12.117187 9.972656 10.652343 21.726562 19.488281 34.730468 26.109374 2.996094-9.304687 6.617188-18.398437 10.835938-27.21875-5.800782-6.230468-12.117188-12.886718-18.601563-19.457031-4.011719-4.097656-8.191406-8.191406-12.375-12.203125zm0 0"/><path d="m322.40625 296.367188.9375-.511719c.769531-.429688 1.535156-.855469 2.21875-1.28125 2.046875-1.195313 4.179688-2.21875 6.316406-3.242188-.34375-5.121093-.769531-10.15625-1.367187-15.191406-1.519531-14.324219-4.058594-28.527344-7.59375-42.496094-21.417969 8.230469-44.054688 12.847657-66.988281 13.65625v59.902344h51.796874c4.558594-4.042969 9.472657-7.671875 14.679688-10.835937zm0 0"/><path d="m247.398438 119.46875c-11.503907 0-22.984376 1.027344-34.304688 3.074219 3.242188 5.375 6.230469 10.667969 8.789062 15.785156 6.292969 11.550781 11.960938 23.429687 16.980469 35.585937v-37.207031c2.816407-.085937 5.71875-.171875 8.535157-.171875 2.867187.015625 5.730468.328125 8.53125.941406v-.683593c14.148437.574219 28.167968 2.921875 41.730468 6.996093 16.820313 19.136719 29.285156 41.703126 36.519532 66.132813 12.886718-6.617187 24.546874-15.390625 34.476562-25.941406 4.179688 3.84375 8.191406 7.851562 12.03125 12.121093-12.019531 12.515626-26.144531 22.824219-41.726562 30.460938 4.097656 15.738281 6.953124 31.773438 8.53125 47.957031.429687 3.5.769531 7.085938 1.023437 10.753907 8.746094-2.472657 17.792969-3.707032 26.882813-3.667969 25.113281-.007813 49.351562 9.226562 68.09375 25.941406-2.011719-48.65625-22.09375-94.8125-56.320313-129.453125-.386719-.515625-.847656-.976562-1.363281-1.363281-35.875-35.855469-84.285156-56.359375-134.996094-57.175781-1.109375-.085938-2.304688-.085938-3.414062-.085938zm0 0"/><path d="m204.730469 102.402344c4.714843 0 8.535156-3.820313 8.535156-8.53125v-17.066406c0-4.714844-3.820313-8.535157-8.535156-8.535157-4.710938 0-8.53125 3.820313-8.53125 8.535157v17.066406c0 4.710937 3.820312 8.53125 8.53125 8.53125zm0 0"/><path d="m238.863281 102.402344c2.265625 0 4.433594-.898438 6.035157-2.5l8.53125-8.53125c3.234374-3.347656 3.1875-8.671875-.101563-11.964844-3.292969-3.289062-8.617187-3.335938-11.964844-.101562l-8.53125 8.53125c-2.441406 2.441406-3.171875 6.113281-1.851562 9.300781 1.320312 3.1875 4.433593 5.265625 7.882812 5.265625zm0 0"/><path d="m460.730469 384.003906c0-47.128906-38.203125-85.332031-85.332031-85.332031-8.777344-.035156-17.503907 1.316406-25.855469 4.007813-5.558594 1.75-10.90625 4.097656-15.957031 7-.769532.339843-1.539063.851562-2.304688 1.277343-6.128906 3.730469-11.777344 8.203125-16.8125 13.3125-15.679688 15.921875-24.449219 37.386719-24.40625 59.734375 0 1.449219 0 2.902344.085938 4.265625.3125 5.792969 1.199218 11.535157 2.644531 17.152344 3.164062 12.175781 8.960937 23.507813 16.984375 33.195313 3.714844 4.410156 7.859375 8.441406 12.371094 12.03125 12.800781 10.269531 28.304687 16.609374 44.628906 18.261718 2.816406.257813 5.71875.425782 8.621094.425782 47.128906 0 85.332031-38.203126 85.332031-85.332032zm-80.296875 59.476563c-1.675782.171875-3.355469.257812-5.035156.257812-29.105469.011719-53.980469-20.949219-58.902344-49.632812-4.921875-28.683594 11.546875-56.742188 38.988281-66.429688 27.445313-9.6875 57.875 1.8125 72.050781 27.230469 5.007813 8.878906 7.625 18.902344 7.59375 29.097656-.058594 31.007813-23.804687 56.828125-54.695312 59.476563zm0 0"/><path d="m375.398438 341.335938c-16.195313-.105469-31.054688 8.96875-38.359376 23.421874-7.304687 14.457032-5.796874 31.800782 3.894532 44.777344 9.691406 12.976563 25.894531 19.34375 41.828125 16.445313.554687-.09375 1.101562-.230469 1.648437-.351563 2.222656-.429687 4.402344-1.054687 6.519532-1.859375 16.359374-6.414062 27.125-22.191406 27.132812-39.765625.007812-3.128906-.335938-6.25-1.023438-9.300781-4.355468-19.5-21.660156-33.367187-41.640624-33.367187zm10.289062 83.933593c.734375-.1875 1.460938-.410156 2.1875-.628906-.726562.230469-1.453125.433594-2.1875.628906zm0 0"/><path d="m458.769531 443.308594c-6.597656 9.332031-14.738281 17.46875-24.066406 24.066406l31.0625 31.0625c6.644531 6.644531 17.417969 6.644531 24.0625 0 6.644531-6.648438 6.644531-17.421875 0-24.066406zm0 0"/></svg>