<?xml version="1.0" standalone="no"?>
<!DOCTYPE svg PUBLIC "-//W3C//DTD SVG 20010904//EN"
 "http://www.w3.org/TR/2001/REC-SVG-20010904/DTD/svg10.dtd">
<svg version="1.0" xmlns="http://www.w3.org/2000/svg"
 width="901.000000pt" height="346.000000pt" viewBox="0 0 901.000000 346.000000"
 preserveAspectRatio="xMidYMid meet">
<metadata>
Created by potrace 1.15, written by Peter Selinger 2001-2017
</metadata>
<g transform="translate(0.000000,346.000000) scale(0.100000,-0.100000)"
fill="#000000" stroke="none">
<path d="M1913 3395 c0 -8 4 -12 8 -9 4 2 10 0 14 -6 4 -6 -8 -10 -30 -10 -20
0 -34 4 -30 9 3 5 0 13 -6 17 -7 4 -9 3 -5 -4 7 -12 -11 -27 -34 -27 -8 0 -21
-4 -29 -9 -10 -6 -12 -5 -7 2 4 7 1 13 -8 13 -17 2 -35 5 -38 9 -2 1 -11 3
-20 5 -12 2 -15 -3 -13 -17 3 -12 2 -18 -2 -14 -4 3 -16 -2 -27 -11 -21 -18
-21 -18 -3 3 18 21 14 34 -10 34 -9 0 -11 -5 -7 -12 4 -7 -2 -5 -13 5 -19 16
-20 16 -20 -10 -1 -52 -3 -66 -10 -59 -4 4 -9 18 -11 32 -2 19 1 24 10 18 7
-4 4 2 -6 14 -21 24 -36 31 -17 8 8 -9 8 -16 2 -20 -5 -4 -8 -15 -6 -26 4 -18
3 -18 -28 -2 -37 20 -68 22 -88 5 -8 -6 -17 -12 -21 -12 -5 -1 -9 -1 -10 -2
-2 0 -11 -2 -21 -4 -10 -2 -26 -7 -35 -11 -31 -13 -72 -14 -72 -2 0 6 -12 1
-27 -13 -14 -13 -23 -18 -19 -11 6 9 1 12 -16 10 -32 -5 -50 -17 -42 -30 4 -7
2 -8 -5 -4 -6 4 -8 13 -5 19 5 9 4 9 -6 0 -8 -8 -20 -9 -36 -3 -23 9 -28 6
-25 -14 1 -5 -4 -4 -13 3 -10 8 -16 9 -21 1 -3 -5 -14 -10 -23 -10 -15 0 -15
2 -2 10 9 6 10 10 3 10 -6 0 -15 -5 -19 -11 -4 -8 -9 -7 -14 2 -7 10 -11 10
-24 0 -9 -8 -16 -10 -16 -5 0 4 -5 3 -12 -4 -9 -9 -16 -8 -32 6 -11 9 -16 12
-13 6 5 -8 -6 -12 -31 -13 -66 -2 -75 -4 -80 -23 -6 -25 -17 -23 -58 15 -20
17 -39 31 -42 30 -11 -4 -9 -65 2 -90 10 -24 30 -30 41 -13 3 6 13 10 21 10 8
0 12 -4 9 -10 -10 -16 11 -12 50 10 20 11 33 15 29 8 -6 -10 -4 -10 7 -2 8 6
30 10 49 8 22 -2 42 3 55 14 19 16 19 16 5 -2 -13 -18 -13 -19 0 -11 8 5 21
17 29 28 13 18 14 18 34 0 16 -14 19 -15 15 -3 -4 11 0 16 13 16 11 0 19 -4
19 -8 0 -4 9 -8 21 -8 11 0 18 4 15 8 -3 5 1 9 9 9 8 0 12 -4 9 -9 -3 -4 4 -8
15 -8 12 0 21 4 21 9 0 14 27 7 52 -15 18 -15 20 -15 9 -1 -7 9 -11 18 -7 18
24 5 33 4 45 -5 11 -8 13 -8 7 1 -8 14 50 13 73 -1 10 -6 12 -5 7 2 -10 16 16
15 33 0 11 -11 12 -10 6 2 -6 12 -5 13 6 3 7 -7 19 -13 27 -13 8 0 10 5 6 13
-4 6 4 2 17 -10 19 -17 28 -20 36 -12 9 9 11 7 9 -4 -3 -25 -16 -33 -26 -17
-8 13 -10 13 -10 -1 0 -9 -8 -23 -17 -30 -11 -10 -14 -10 -9 -1 4 7 1 12 -9
12 -10 0 -13 -5 -9 -12 4 -8 3 -10 -2 -5 -5 5 -9 18 -9 30 0 17 -6 22 -27 22
-16 0 -27 -3 -25 -6 1 -3 -4 -13 -10 -21 -14 -17 -8 -29 12 -22 7 3 15 -2 19
-12 5 -13 4 -15 -7 -5 -11 8 -17 8 -25 -1 -15 -19 -15 -30 0 -40 11 -8 10 -9
-1 -6 -17 5 -24 35 -10 44 5 3 7 10 3 15 -3 5 -10 7 -15 3 -5 -3 -9 -2 -8 3 4
22 -3 24 -21 8 -19 -17 -20 -17 -20 -1 0 9 -5 14 -10 11 -6 -4 -7 -12 -3 -18
3 -7 -3 -4 -14 6 -17 15 -22 15 -32 3 -13 -15 -35 -16 -48 -1 -4 4 -2 5 6 0
10 -5 12 -4 7 4 -4 6 -12 9 -17 5 -5 -3 -7 -10 -4 -15 4 -5 -1 -9 -10 -9 -9 0
-14 4 -11 9 11 18 -24 5 -48 -18 -14 -13 -27 -18 -30 -13 -3 6 -14 9 -23 8
-21 -3 -43 15 -35 29 3 6 -6 -1 -21 -14 -15 -14 -24 -31 -22 -43 3 -15 1 -17
-8 -9 -13 10 -57 12 -54 1 1 -3 -3 -5 -8 -5 -5 0 -9 2 -8 5 1 3 -12 6 -28 6
-16 1 -29 -3 -29 -8 0 -6 -6 -6 -14 1 -10 9 -16 9 -21 1 -5 -8 -11 -8 -20 0
-9 7 -16 6 -24 -4 -9 -10 -9 -16 -1 -21 6 -4 8 -16 4 -28 -5 -18 -4 -20 7 -10
19 18 49 -11 41 -40 -3 -12 -1 -19 3 -15 5 4 14 3 21 -3 23 -19 23 7 0 32 -12
13 -21 30 -18 37 7 21 37 13 67 -18 15 -16 31 -27 35 -25 4 3 26 -9 49 -25 22
-17 45 -30 50 -30 5 0 14 -7 21 -15 7 -9 15 -13 18 -10 3 3 11 0 19 -6 7 -7
32 -13 54 -15 23 -2 46 -7 53 -11 6 -4 17 -8 25 -10 8 -1 34 -12 58 -24 39
-20 48 -30 44 -51 0 -5 17 -6 39 -4 22 2 43 0 46 -5 3 -5 9 -7 14 -4 5 3 11 1
15 -5 4 -6 10 -8 15 -5 4 3 13 -2 20 -10 7 -8 21 -15 31 -15 11 0 19 -4 19
-10 0 -5 11 -10 24 -10 14 0 28 -4 31 -10 3 -5 17 -10 30 -10 13 0 26 -4 29
-8 2 -4 19 -9 37 -10 18 -1 38 -7 46 -13 13 -12 200 -10 218 2 16 11 65 17 70
9 3 -4 -5 -10 -16 -13 -12 -3 -18 -10 -14 -17 5 -8 10 -8 20 0 9 8 15 8 20 0
3 -6 12 -7 18 -3 6 4 41 8 76 10 36 1 71 5 78 7 7 3 15 1 19 -5 11 -18 46 24
53 63 1 9 34 49 69 84 12 13 22 27 22 32 0 5 9 17 20 27 11 10 18 20 15 23 -3
3 2 14 12 24 9 10 13 18 10 18 -4 0 3 17 14 37 12 20 22 48 23 62 4 33 15 59
39 93 11 15 21 45 22 67 2 36 -1 41 -29 52 -60 25 -87 12 -122 -58 -9 -18 -21
-33 -26 -33 -5 0 -7 -4 -4 -8 3 -5 -15 -28 -39 -52 -24 -24 -42 -46 -40 -50 2
-3 -5 -7 -16 -7 -12 -1 -27 -8 -36 -15 -8 -6 -20 -13 -27 -14 -6 -2 -24 -7
-41 -12 -16 -5 -40 -7 -53 -5 -26 4 -54 27 -45 37 4 3 0 6 -8 6 -25 0 -36 41
-22 83 6 20 10 37 7 37 -2 0 2 14 11 30 9 17 13 30 10 30 -3 0 1 14 10 30 9
17 12 30 9 30 -4 0 0 8 8 18 8 9 14 33 14 52 -1 33 -3 35 -31 32 -17 -2 -34
-8 -39 -13 -17 -16 -55 -10 -68 11 -15 24 -25 26 -25 5z"/>
<path d="M683 3038 c-5 -7 -9 -20 -8 -28 1 -18 -17 -40 -27 -33 -14 8 -9 -14
6 -26 16 -14 29 -203 15 -238 -6 -18 -5 -23 6 -23 8 0 15 -8 15 -17 0 -9 3
-13 7 -10 4 4 20 -5 36 -20 17 -16 26 -22 22 -14 -6 10 -4 12 6 5 8 -5 17 -9
22 -10 4 -1 9 -3 12 -4 3 -1 8 -3 13 -5 4 -1 18 -6 32 -12 14 -6 30 -12 35
-13 6 -1 20 -6 33 -11 13 -5 37 -12 55 -15 44 -8 62 -12 62 -14 0 -1 14 -3 30
-5 42 -4 85 -12 116 -20 14 -3 41 -8 60 -10 19 -2 34 -4 34 -5 0 -1 44 -4 99
-6 54 -2 106 -9 116 -14 11 -6 21 -6 24 -1 6 9 153 7 163 -3 3 -3 12 -1 20 5
10 9 13 8 13 0 0 -7 5 -9 11 -6 16 10 69 12 63 3 -3 -4 2 -8 10 -8 8 0 18 5
21 10 4 6 12 7 18 3 7 -4 6 0 -2 10 -12 15 -11 17 14 17 21 0 25 -3 17 -13 -9
-10 -1 -12 36 -11 174 5 211 8 207 14 -2 4 -31 6 -63 4 -39 -1 -59 2 -59 9 0
8 24 12 71 12 38 0 80 5 93 12 14 7 25 8 29 2 4 -6 11 -6 19 1 10 8 15 8 20 0
4 -7 11 -8 18 -1 7 5 17 11 22 13 6 1 9 5 8 8 -1 4 57 4 76 1 2 -1 -2 -7 -8
-15 -10 -11 -9 -14 1 -12 7 1 19 5 27 10 11 7 11 10 0 17 -10 6 -8 9 8 9 12 0
25 5 28 10 4 6 16 10 28 8 14 -2 22 2 22 12 0 9 9 15 22 14 13 -1 20 3 17 7
-7 13 20 11 32 -1 21 -21 33 16 43 124 6 60 16 115 22 122 9 11 8 14 -4 14
-16 0 -40 -24 -32 -32 3 -3 -4 -13 -15 -23 -11 -10 -20 -24 -20 -32 0 -18 -25
-17 -40 2 -7 8 -17 12 -24 8 -6 -3 0 6 13 20 14 15 30 27 36 27 6 0 11 11 11
25 0 25 -19 34 -31 15 -3 -5 -13 -10 -21 -10 -8 0 -27 -15 -43 -32 -22 -24
-27 -36 -19 -46 8 -9 14 -9 24 -1 11 9 14 6 12 -15 -2 -21 -7 -26 -21 -22 -10
2 -28 -6 -42 -20 -14 -14 -25 -22 -25 -18 0 3 -7 1 -15 -6 -19 -16 -8 -33 17
-27 17 5 17 3 6 -11 -9 -12 -5 -11 10 2 13 11 33 21 45 23 12 2 24 8 25 13 2
6 11 10 21 10 9 0 22 5 29 12 7 7 12 8 12 4 0 -5 6 -3 14 3 10 8 16 9 21 1 3
-6 12 -7 18 -3 7 3 4 -2 -5 -13 -19 -22 -21 -34 -7 -51 7 -8 5 -11 -8 -9 -10
2 -35 -3 -56 -10 -20 -7 -39 -13 -42 -14 -3 0 -6 0 -7 -1 -21 -6 -37 -5 -32 2
3 5 -2 9 -10 9 -9 0 -16 -4 -16 -9 0 -15 -41 -24 -53 -12 -8 8 -15 7 -27 -4
-9 -8 -27 -17 -41 -19 -13 -2 -24 -5 -24 -6 0 -1 -31 -4 -70 -6 -110 -7 -170
-11 -170 -13 0 -9 -50 -9 -60 -1 -6 5 -15 7 -19 3 -12 -12 -48 -13 -62 -2 -9
7 -14 8 -14 1 0 -6 -18 -9 -42 -7 -24 1 -43 4 -43 5 0 5 -79 10 -180 13 -60 1
-116 6 -124 11 -10 7 -12 6 -6 -4 6 -10 4 -11 -6 -4 -18 11 -37 15 -71 15 -15
0 -30 5 -33 10 -4 5 -18 9 -33 10 -22 0 -23 2 -9 8 10 4 18 11 18 16 0 6 7 9
15 7 9 -2 23 3 32 10 13 11 14 11 8 0 -7 -12 -4 -12 14 -2 12 7 25 8 29 4 3
-5 13 -15 22 -21 13 -10 16 -10 16 2 0 8 -4 12 -8 9 -4 -2 -10 0 -14 6 -8 13
18 13 31 0 5 -5 24 -10 42 -12 19 -1 36 -6 39 -11 2 -4 11 -3 18 3 9 8 15 8
20 0 3 -6 12 -7 18 -3 17 11 30 11 44 1 6 -5 14 -4 18 2 5 8 11 8 21 -1 11 -9
14 -8 14 6 0 10 -3 15 -7 12 -3 -4 -12 -2 -20 4 -7 6 -13 8 -13 4 0 -4 -6 -2
-14 4 -7 6 -31 12 -52 13 -22 0 -44 5 -51 10 -7 6 -14 5 -18 -2 -5 -8 -11 -8
-21 1 -8 6 -14 8 -14 4 0 -4 -6 -2 -14 4 -8 7 -17 8 -19 4 -5 -7 -57 -9 -64
-3 -2 2 -12 4 -23 5 -11 1 -21 3 -22 5 -2 1 -18 3 -37 5 -18 2 -39 9 -45 16
-8 9 -6 10 12 6 12 -3 20 -2 17 3 -3 4 3 14 12 21 12 10 14 10 9 2 -5 -9 1
-13 18 -13 30 0 31 21 1 33 -11 5 -21 8 -23 7 -2 -1 -14 5 -27 14 -58 38 -97
56 -128 57 -17 1 -46 8 -62 15 -17 7 -46 16 -65 19 -39 7 -53 15 -25 15 14 0
15 3 5 15 -14 17 -45 21 -35 5 3 -5 -1 -10 -9 -10 -9 0 -18 0 -21 0 -3 0 -4 3
-2 8 1 4 6 6 10 4 5 -1 6 2 2 8 -4 7 -11 8 -18 2 -14 -11 -58 -5 -100 13 -10
4 -23 2 -32 -5 -14 -11 -14 -15 1 -31 10 -11 14 -19 11 -19 -4 0 -2 -11 3 -24
7 -20 6 -23 -8 -21 -9 2 -23 4 -29 4 -8 1 -11 14 -9 39 2 20 -1 42 -5 48 -7 9
-16 39 -18 67 -1 11 -18 8 -28 -5z"/>
<path d="M255 2909 c-6 -8 -4 -10 5 -4 9 5 11 4 6 -4 -6 -9 -11 -9 -21 -1 -10
8 -15 8 -20 -1 -6 -8 -9 -8 -15 1 -12 19 -40 -76 -46 -150 -2 -36 -6 -96 -9
-135 -2 -38 -7 -85 -11 -103 -8 -41 8 -61 47 -58 16 1 34 -3 40 -10 8 -10 15
-10 29 -2 10 7 17 15 15 18 -8 12 15 398 25 424 8 23 8 27 -4 23 -7 -3 -18 -1
-24 5 -6 6 -12 6 -17 -3z"/>
<path d="M2958 2774 c26 -39 29 -88 12 -249 -13 -123 -26 -161 -61 -173 -18
-7 -17 -10 14 -40 l33 -32 0 42 c0 24 5 42 10 41 6 -1 9 11 8 27 -1 17 5 35
14 42 12 10 14 10 8 1 -6 -12 5 -15 49 -13 3 0 15 -9 27 -20 38 -35 43 -26 43
75 0 72 -3 95 -13 95 -7 0 -10 5 -7 10 4 6 10 8 14 5 4 -2 8 8 7 23 -1 19 -9
31 -29 40 -15 8 -32 25 -38 39 -8 21 -12 23 -24 13 -12 -10 -16 -8 -24 11 -5
13 -7 27 -5 30 2 3 -11 19 -28 35 l-31 29 21 -31z"/>
<path d="M740 2495 c-11 -13 -9 -15 13 -15 14 0 28 -4 31 -8 2 -4 19 -9 37
-10 18 -1 37 -7 43 -11 6 -5 27 -12 46 -14 19 -3 36 -6 38 -7 3 -4 20 -7 38
-9 8 0 13 -5 10 -9 -2 -4 16 -9 42 -10 50 -3 107 -9 107 -12 0 -2 98 -11 155
-13 30 -2 60 -5 65 -8 13 -8 62 -10 190 -11 58 0 106 -5 114 -12 11 -8 13 -8
7 2 -8 14 3 16 24 2 9 -5 19 -5 26 1 8 7 14 6 19 -1 3 -6 11 -8 16 -4 16 10
139 12 145 3 2 -5 17 -4 31 2 15 5 32 8 39 5 8 -3 16 -1 19 4 4 6 -72 10 -202
11 -243 2 -373 6 -393 13 -8 3 -55 7 -105 10 -49 2 -90 5 -90 6 0 1 -22 4 -50
6 -27 3 -57 7 -65 11 -24 10 -54 10 -67 0 -9 -7 -13 -4 -13 7 0 10 -4 15 -9
11 -5 -3 -12 -2 -15 3 -2 4 -17 9 -33 10 -29 3 -66 9 -70 12 -2 2 -7 4 -13 5
-5 1 -12 4 -15 5 -3 1 -9 4 -15 5 -5 1 -11 3 -12 4 -2 2 -14 4 -27 7 -14 2
-30 9 -36 14 -9 7 -16 5 -25 -5z"/>
<path d="M4655 2332 c-11 -10 -21 -24 -23 -32 -5 -27 -134 -364 -154 -403 -12
-24 -32 -44 -51 -52 -30 -13 -25 -14 73 -14 75 1 95 3 71 9 -56 13 -61 32 -32
125 l19 60 89 3 89 3 22 -69 c29 -90 28 -100 -10 -117 -31 -13 -26 -14 77 -14
101 0 108 1 79 13 -36 16 -50 46 -155 334 -35 94 -66 172 -69 172 -3 -1 -14
-9 -25 -18z m28 -169 c19 -51 32 -95 29 -98 -3 -3 -34 -5 -69 -5 -43 0 -63 4
-63 12 0 15 62 190 66 186 1 -2 18 -44 37 -95z"/>
<path d="M6750 2332 c0 -9 -3 -42 -6 -72 l-7 -55 25 35 c31 45 61 60 126 60
l52 0 0 -203 c0 -226 -1 -229 -65 -252 -38 -13 -33 -14 100 -14 138 1 139 1
97 16 -29 10 -46 23 -53 40 -5 13 -9 112 -9 219 l0 194 53 0 c64 0 94 -15 124
-59 l23 -34 0 34 c0 19 -3 51 -6 71 -6 36 -7 37 -27 23 -30 -21 -359 -21 -399
-1 -25 13 -28 13 -28 -2z"/>
<path d="M4050 2313 c-59 -21 -142 -104 -158 -159 -37 -127 11 -249 122 -306
77 -40 232 -36 335 9 34 14 35 15 14 24 -19 7 -23 16 -23 47 0 69 11 102 39
117 24 13 16 14 -89 14 -114 -1 -115 -1 -73 -15 34 -12 44 -22 54 -51 14 -43
7 -132 -12 -145 -22 -14 -121 -2 -166 21 -103 52 -156 184 -122 306 22 77 116
145 199 145 63 -1 142 -60 157 -119 6 -23 7 -24 14 -6 4 11 8 41 8 67 l1 46
-50 11 c-72 16 -197 12 -250 -6z"/>
<path d="M4946 2323 c-3 -4 8 -12 26 -17 52 -17 58 -41 58 -231 0 -191 -6
-211 -60 -231 -33 -12 -29 -13 65 -15 201 -5 249 4 290 52 29 36 33 85 9 130
-11 22 -34 39 -76 58 -58 27 -60 28 -33 35 67 17 103 68 91 130 -9 47 -47 73
-127 85 -72 12 -232 15 -243 4z m234 -29 c69 -28 93 -112 46 -159 -25 -25 -99
-50 -122 -41 -11 4 -14 30 -14 111 l0 105 25 0 c13 0 43 -7 65 -16z m31 -240
c62 -32 84 -131 39 -179 -38 -41 -130 -45 -145 -7 -10 26 -19 178 -11 197 5
14 14 15 49 10 23 -4 54 -13 68 -21z"/>
<path d="M5410 2320 c0 -3 15 -10 32 -15 52 -16 58 -40 58 -230 0 -191 -6
-213 -60 -232 -31 -10 -18 -12 95 -12 102 1 122 3 95 11 -58 16 -60 22 -60
235 0 180 1 194 20 213 11 11 31 20 45 20 14 0 25 3 25 8 0 4 -56 7 -125 7
-69 0 -125 -2 -125 -5z"/>
<path d="M5725 2322 l-60 -3 43 -19 c59 -27 64 -46 60 -235 -3 -180 -12 -207
-71 -224 -24 -7 -3 -9 88 -9 119 0 120 0 77 15 -23 8 -48 24 -54 36 -7 13 -13
83 -15 177 l-4 155 111 -115 c61 -63 146 -154 190 -201 l78 -87 4 222 c4 233
8 259 51 276 15 6 -11 9 -78 8 -79 0 -93 -2 -68 -9 59 -17 68 -45 71 -214 l3
-150 -78 80 c-43 44 -126 130 -183 190 l-105 110 -60 -3z"/>
<path d="M6290 2318 c0 -5 9 -8 20 -8 11 0 29 -9 40 -20 19 -19 20 -33 20
-208 0 -208 -2 -217 -61 -238 -29 -11 -2 -13 172 -13 234 -1 215 -8 225 87 l5
57 -19 -40 c-11 -22 -29 -48 -40 -59 -44 -38 -171 -38 -199 0 -8 11 -13 49
-13 106 l0 88 54 0 c70 0 101 -12 120 -47 15 -27 15 -24 15 62 0 85 -1 88 -15
63 -20 -38 -43 -48 -113 -48 l-61 0 0 106 0 107 79 -6 c93 -6 120 -18 128 -58
9 -47 23 -33 23 24 l0 52 -190 0 c-105 0 -190 -3 -190 -7z"/>
<path d="M7233 2318 c-2 -5 6 -8 19 -8 14 0 33 -6 44 -14 17 -13 19 -30 22
-206 4 -217 0 -231 -65 -248 -29 -8 11 -10 174 -11 l211 -1 11 50 c18 83 14
102 -12 51 -32 -65 -62 -83 -136 -83 -40 0 -70 6 -86 16 -24 16 -25 21 -25
111 l0 95 53 -1 c71 -1 100 -11 113 -37 21 -42 24 -35 24 54 -1 84 -2 88 -16
62 -20 -38 -43 -48 -113 -48 l-61 0 0 106 0 107 82 -6 c73 -5 85 -8 105 -32
13 -14 23 -36 24 -48 0 -21 1 -21 9 -2 5 11 9 38 9 60 l1 40 -191 0 c-105 0
-193 -3 -196 -7z"/>
<path d="M7910 2322 c0 -5 11 -13 24 -16 54 -13 56 -22 56 -224 0 -208 -4
-225 -63 -240 -25 -7 -8 -10 83 -16 126 -8 228 3 295 33 49 22 103 74 121 118
20 47 17 150 -5 199 -24 53 -93 111 -156 130 -60 19 -355 33 -355 16z m276
-27 c61 -18 118 -64 146 -118 17 -32 22 -60 22 -118 1 -67 -3 -82 -29 -124
-41 -66 -101 -98 -173 -92 -87 6 -87 5 -90 252 l-3 215 39 0 c21 0 61 -7 88
-15z"/>
<path d="M8500 2318 c0 -5 9 -8 20 -8 11 0 29 -9 40 -20 19 -19 20 -33 20
-212 0 -106 -4 -199 -8 -205 -4 -7 -26 -19 -47 -27 -37 -13 -26 -14 168 -18
l208 -3 8 35 c16 62 20 110 10 110 -5 0 -9 -7 -9 -16 0 -29 -39 -81 -72 -95
-33 -14 -110 -16 -147 -4 -31 9 -41 43 -41 136 l0 79 58 0 c66 0 101 -15 119
-50 11 -22 13 -14 12 65 0 84 -1 88 -13 59 -16 -36 -37 -44 -118 -44 l-58 0 0
106 0 107 78 -6 c100 -7 110 -12 132 -61 l19 -41 0 53 c1 28 2 55 4 58 1 3
-85 7 -191 7 -105 1 -192 -1 -192 -5z"/>
<path d="M194 2277 c1 -8 8 -22 15 -31 7 -9 10 -16 7 -16 -4 0 12 -20 35 -45
23 -25 47 -45 54 -45 6 0 24 -13 40 -30 15 -16 31 -28 34 -27 13 3 80 -27 75
-34 -2 -5 4 -6 15 -4 10 2 30 -3 45 -10 14 -8 26 -11 26 -8 0 3 6 0 13 -6 8
-6 17 -8 20 -4 4 3 17 1 30 -5 12 -6 36 -14 52 -16 17 -2 31 -5 33 -6 1 -2 7
-4 12 -5 6 -1 13 -4 18 -5 4 -1 11 -2 16 -1 5 1 16 -1 25 -5 21 -9 39 -13 82
-17 20 -2 42 -8 50 -13 8 -5 17 -9 22 -10 4 -1 8 -2 10 -4 5 -4 44 -11 82 -14
22 -2 41 -5 43 -6 1 -1 16 -4 32 -5 17 -1 31 -3 33 -5 12 -10 183 -21 349 -23
82 -1 134 -5 131 -11 -4 -5 -1 -6 8 0 19 11 79 13 85 2 3 -5 12 -4 19 2 10 8
15 8 20 0 5 -8 11 -7 23 2 13 11 14 11 7 -2 -7 -12 -6 -13 6 -4 13 10 67 13
324 18 50 1 95 5 101 9 6 3 14 3 18 0 10 -10 56 -11 50 -1 -3 4 2 9 10 9 17 2
34 5 39 8 2 2 41 8 92 14 11 1 26 7 34 11 8 5 26 9 42 8 15 0 33 6 40 14 9 11
8 14 -8 14 -11 0 -33 -4 -49 -10 -16 -5 -56 -12 -89 -14 -33 -2 -60 -5 -60 -6
0 -1 -25 -3 -55 -5 -145 -10 -191 -15 -201 -20 -5 -4 -16 -2 -24 5 -9 7 -15 8
-20 0 -9 -14 -65 -13 -65 3 0 9 -2 9 -8 -1 -6 -9 -58 -13 -193 -15 -101 -2
-191 -7 -198 -12 -10 -6 -12 -4 -6 6 7 12 6 12 -7 1 -9 -7 -19 -9 -22 -4 -3 5
-38 10 -78 11 -39 1 -75 4 -80 7 -4 3 -29 7 -55 10 -49 5 -88 11 -88 14 0 1
-29 4 -65 6 -36 2 -83 9 -105 14 -22 6 -54 12 -70 13 -17 2 -36 7 -44 11 -9 6
-12 5 -7 -2 4 -6 -5 -5 -21 3 -15 8 -46 17 -68 20 -53 8 -80 13 -80 15 0 1
-13 4 -30 6 -16 2 -39 9 -50 14 -11 5 -31 11 -45 13 -14 2 -32 7 -40 10 -42
18 -100 35 -100 30 0 -3 -8 1 -18 10 -9 8 -20 16 -24 16 -5 1 -9 1 -10 2 -2 0
-14 3 -27 5 -14 2 -32 11 -41 19 -9 8 -20 15 -25 15 -4 0 -25 16 -46 35 -22
19 -44 35 -50 35 -5 0 -8 4 -5 9 3 4 -5 18 -19 31 -17 16 -23 18 -21 7z"/>
<path d="M103 2095 c3 -28 74 -108 88 -100 4 3 10 -4 14 -15 3 -11 10 -20 16
-20 8 0 35 -20 65 -48 8 -7 14 -10 14 -6 0 4 10 -1 22 -12 12 -10 18 -13 14
-6 -7 11 -4 11 13 0 12 -7 21 -16 21 -21 0 -4 4 -6 8 -3 5 3 21 -2 36 -10 16
-7 36 -14 45 -14 9 0 22 -5 29 -12 7 -7 12 -8 12 -4 0 5 7 2 16 -5 15 -13 29
-17 66 -21 9 -1 14 -6 12 -10 -3 -4 6 -8 19 -8 13 0 26 -3 30 -6 3 -4 23 -8
44 -9 35 -3 75 -11 81 -15 1 -2 12 -3 25 -4 16 -1 22 -7 21 -22 -1 -11 4 -21
11 -21 7 0 10 8 7 19 -5 19 22 26 32 9 6 -10 43 -3 50 8 4 6 -11 10 -51 13
-10 1 -10 4 0 17 9 12 9 13 0 7 -8 -4 -13 -2 -13 6 0 7 11 18 25 24 20 10 27
9 41 -7 9 -10 20 -16 24 -14 4 3 14 -3 21 -12 12 -15 12 -16 -1 -8 -16 10 -84
15 -75 6 3 -3 13 -6 21 -7 29 -4 84 -35 79 -44 -3 -5 0 -12 7 -16 8 -5 6 -10
-8 -15 -17 -7 -17 -8 4 -8 12 -1 22 3 22 8 0 12 37 20 47 10 5 -5 28 -11 53
-14 24 -3 51 -11 59 -18 8 -7 12 -7 8 -1 -3 6 0 11 8 11 8 0 13 -3 12 -6 -1
-3 3 -6 8 -6 5 0 9 4 7 9 -2 5 4 4 12 -4 9 -7 16 -10 16 -6 0 3 11 1 25 -4 13
-5 26 -6 29 -2 4 7 96 8 104 2 1 -2 6 -3 11 -4 5 0 12 -4 16 -8 9 -8 -16 -5
-32 5 -6 4 -14 3 -18 -3 -4 -6 -12 -7 -18 -3 -8 5 -8 2 1 -9 10 -12 10 -17 0
-25 -13 -11 -22 -10 -73 3 -26 6 -28 5 -18 -8 7 -8 10 -18 6 -21 -3 -4 1 -7
11 -7 9 0 14 -5 11 -10 -5 -8 -11 -8 -19 -1 -7 6 -17 7 -21 3 -5 -4 -5 -2 -2
4 4 7 0 17 -8 24 -13 11 -19 7 -16 -12 1 -9 -27 -4 -36 7 -4 4 -3 5 4 1 6 -3
14 -2 18 4 4 6 -5 10 -19 10 -16 0 -25 -5 -23 -12 2 -14 -50 -20 -58 -7 -3 4
-15 5 -28 1 -22 -5 -22 -5 -3 16 18 20 43 21 31 1 -4 -5 0 -9 9 -9 15 0 16 16
2 38 -5 8 -12 10 -19 4 -11 -7 -32 -9 -39 -2 -2 1 -16 3 -32 5 -29 2 -29 2 -9
-14 22 -19 26 -48 6 -48 -9 0 -10 4 -3 12 14 16 -14 39 -36 31 -14 -5 -15 -4
-4 9 11 13 8 15 -16 16 -16 1 -37 0 -48 -1 -13 -1 -16 2 -10 12 4 7 -4 3 -18
-10 -18 -16 -28 -20 -33 -12 -5 8 -10 8 -21 -1 -7 -6 -11 -15 -8 -20 3 -5 -2
-9 -10 -9 -9 0 -16 7 -16 15 0 24 4 30 18 27 6 -2 12 6 12 18 0 14 -6 20 -24
20 -26 0 -50 22 -38 36 4 5 -2 1 -14 -9 -11 -9 -24 -14 -27 -10 -4 3 -20 6
-37 5 -16 0 -32 4 -35 9 -4 5 -17 9 -29 9 -13 0 -29 7 -36 15 -6 8 -15 14 -18
13 -4 0 -9 1 -12 2 -3 1 -17 3 -31 4 -14 2 -35 6 -45 11 -10 5 -28 9 -39 9
-23 1 -67 -33 -59 -46 3 -5 0 -7 -7 -6 -6 2 -13 -10 -16 -26 -5 -35 -32 -59
-49 -45 -7 5 -9 19 -6 31 4 16 2 19 -9 12 -25 -15 -38 -13 -34 7 2 12 -2 19
-11 19 -8 0 -12 -4 -9 -10 3 -5 -1 -10 -10 -10 -9 0 -13 5 -10 10 3 6 1 10 -4
10 -6 0 -11 -4 -11 -10 0 -5 -7 -10 -16 -10 -8 0 -13 4 -10 9 7 11 -21 8 -31
-4 -4 -4 -2 -5 6 0 10 5 12 4 7 -4 -4 -6 -12 -9 -17 -5 -5 3 -7 10 -4 15 4 5
0 9 -8 9 -8 0 -20 7 -27 15 -7 8 -17 12 -23 8 -6 -3 -7 -1 -3 5 4 7 1 12 -7
12 -7 0 -14 7 -14 15 0 8 4 12 9 9 4 -3 8 1 9 8 0 7 2 21 4 31 2 11 -1 15 -8
10 -18 -11 -36 -12 -43 -2 -3 5 6 13 20 19 26 9 36 30 15 30 -5 0 -7 -6 -3
-12 6 -10 4 -10 -8 0 -18 14 -18 32 -2 53 14 18 24 59 15 59 -12 0 -44 -38
-50 -58 -2 -9 -5 -98 -6 -197 l-1 -180 38 -115 c40 -120 49 -143 84 -200 12
-19 21 -38 20 -41 -1 -4 6 -15 14 -25 23 -29 40 -62 40 -79 0 -8 5 -15 10 -15
6 0 10 -5 10 -11 0 -6 13 -30 30 -54 16 -24 30 -47 30 -50 0 -4 15 -25 34 -48
18 -23 41 -59 51 -79 9 -21 34 -57 55 -80 20 -24 39 -47 41 -53 2 -5 8 -9 12
-7 5 1 6 -1 3 -6 -7 -12 68 -84 79 -75 4 5 5 3 1 -4 -4 -7 4 -19 19 -29 21
-14 29 -29 40 -74 7 -26 28 -60 54 -84 17 -17 31 -35 31 -41 0 -6 20 -33 45
-60 25 -28 45 -53 45 -57 0 -5 5 -8 10 -8 6 0 23 -11 38 -25 15 -14 23 -25 18
-25 -5 0 1 -11 14 -25 13 -14 28 -25 34 -25 5 0 19 -9 31 -20 11 -11 32 -22
45 -24 14 -2 25 -5 25 -6 0 -1 11 -3 25 -6 14 -2 38 -9 53 -16 16 -6 41 -12
55 -14 15 -1 27 -3 27 -4 0 -4 45 -12 111 -19 39 -4 77 -12 85 -17 16 -10 208
-14 224 -5 5 3 26 6 45 8 45 3 81 9 100 16 8 4 26 8 40 9 14 2 30 6 35 9 6 3
30 11 55 18 25 8 52 16 60 19 8 3 23 7 34 9 10 2 30 12 45 24 24 19 89 62 150
100 14 8 31 25 36 36 6 12 17 28 24 37 7 9 11 16 7 16 -4 0 0 13 9 30 9 16 19
30 24 30 13 0 113 92 107 97 -7 8 20 33 35 33 7 0 9 3 5 7 -4 4 36 50 88 102
53 53 96 99 96 103 2 24 20 50 79 111 36 38 68 74 70 80 2 7 16 26 30 43 14
17 33 41 41 52 8 12 22 25 32 28 10 3 18 10 18 15 0 5 12 23 26 39 29 32 87
120 105 160 7 14 23 50 37 80 14 30 27 58 28 63 1 4 3 9 4 12 5 9 19 74 24
106 1 10 8 24 14 32 7 8 15 40 17 70 3 45 0 58 -16 73 -29 26 -63 5 -66 -41
-2 -20 2 -35 8 -35 5 0 8 4 5 8 -3 5 1 9 8 9 7 0 13 -6 13 -14 0 -7 -6 -13
-12 -13 -7 0 -19 -8 -26 -17 -13 -17 -13 -17 6 -3 19 14 19 14 6 -3 -10 -13
-17 -15 -27 -6 -8 6 -11 16 -7 22 3 6 1 7 -5 3 -7 -4 -12 -1 -12 8 0 8 -5 18
-12 22 -6 4 -8 3 -4 -4 3 -6 2 -13 -4 -17 -18 -11 -10 -32 11 -31 14 1 23 -6
25 -17 1 -9 -2 -15 -7 -11 -8 4 -13 -16 -11 -38 1 -3 -6 -12 -15 -20 -12 -9
-15 -9 -9 0 12 20 -19 14 -38 -7 -17 -19 -27 -20 -57 -7 -9 4 -22 6 -30 4 -8
-2 -13 3 -11 10 1 6 -2 12 -8 12 -9 0 -14 -15 -11 -33 1 -5 -3 -6 -9 -2 -16
10 -30 -37 -16 -55 10 -13 9 -13 -6 -1 -16 12 -22 9 -19 -11 0 -4 -6 -5 -14
-2 -18 7 -19 16 -3 32 7 7 8 12 3 12 -4 0 0 9 10 20 10 11 14 20 10 20 -4 0 0
8 9 19 16 17 16 19 -4 24 -11 3 -20 13 -20 22 0 14 -3 15 -15 5 -8 -7 -15 -9
-15 -5 0 5 -9 0 -20 -10 -20 -18 -21 -18 -14 1 4 10 10 24 14 29 9 15 7 35 -5
35 -5 -1 -8 -11 -7 -22 3 -19 2 -20 -12 -9 -14 11 -16 11 -16 -3 0 -10 5 -14
10 -11 6 3 10 2 10 -4 0 -17 -25 -19 -44 -2 -11 9 -16 11 -13 4 4 -6 2 -15 -5
-20 -19 -11 -39 -13 -32 -2 3 5 -1 9 -8 9 -8 0 -9 3 -3 8 21 15 14 31 -12 26
-35 -6 -45 -13 -37 -25 3 -5 0 -8 -6 -7 -7 2 -14 -5 -15 -15 -2 -9 1 -15 6
-11 5 3 9 0 9 -6 0 -6 11 -8 28 -5 16 3 21 2 11 -2 -9 -5 -15 -16 -13 -25 1
-10 -2 -18 -7 -18 -5 0 -9 5 -9 10 0 6 -12 9 -27 6 -16 -2 -28 -5 -28 -6 0 -1
-21 -3 -47 -4 -29 -1 -48 2 -48 9 0 6 -12 10 -27 9 -16 -1 -27 -7 -25 -13 1
-6 -5 -11 -15 -11 -14 0 -14 2 2 20 10 11 22 17 28 13 6 -4 8 2 5 15 -6 21 6
28 35 23 5 -1 6 3 3 8 -8 12 -30 8 -50 -8 -9 -8 -19 -11 -23 -7 -3 3 -2 6 4 6
5 0 10 7 10 15 0 10 -4 12 -12 5 -17 -14 -27 0 -13 19 10 13 10 14 -2 4 -16
-15 -44 -18 -36 -4 3 5 -1 15 -10 22 -20 16 -49 0 -49 -27 -1 -35 -16 -64 -33
-65 -14 0 -14 -2 2 -8 13 -5 16 -10 9 -14 -7 -4 -14 -3 -18 2 -6 10 -63 41
-76 41 -4 0 -6 -9 -4 -20 4 -23 -3 -25 -42 -8 -15 6 -36 12 -45 13 -10 2 -19
3 -20 5 -2 1 -16 4 -32 6 -25 4 -28 3 -17 -9 6 -8 20 -13 30 -10 10 3 22 0 25
-6 4 -6 0 -11 -8 -11 -9 0 -16 -4 -16 -10 0 -5 -5 -10 -11 -10 -5 0 -7 5 -4
10 7 12 -32 9 -52 -3 -18 -11 -25 9 -8 23 10 8 12 17 6 24 -4 6 -7 18 -6 26 2
10 -5 17 -17 17 -12 1 -30 11 -42 22 -20 19 -76 24 -92 8 -4 -4 -14 -7 -22 -7
-13 0 -12 3 2 19 17 18 17 19 -1 23 -12 2 -14 6 -6 11 6 4 18 1 26 -8 12 -11
17 -12 25 -2 10 12 77 15 88 4 3 -3 16 -2 28 2 11 5 27 6 34 4 6 -3 12 -1 12
4 0 4 44 8 98 9 53 1 112 4 129 7 18 3 35 1 39 -4 3 -5 10 -6 16 -3 7 4 8 2 4
-4 -5 -8 4 -12 28 -12 29 0 34 3 31 19 -4 23 20 31 110 37 72 5 86 7 102 17 6
4 38 12 70 18 32 6 63 14 68 17 12 8 30 11 76 14 21 2 35 6 32 11 -2 4 3 8 11
8 19 2 24 3 51 13 11 4 34 13 50 19 17 6 48 22 70 36 22 14 48 30 59 36 10 5
18 15 18 20 0 6 9 20 20 33 29 30 5 28 -26 -3 -14 -14 -32 -25 -40 -25 -8 0
-17 -4 -20 -9 -3 -5 -18 -12 -33 -16 -16 -3 -38 -16 -50 -27 -13 -12 -23 -19
-23 -15 0 3 -18 0 -40 -8 -22 -8 -42 -14 -45 -15 -3 0 -6 0 -7 -1 -2 0 -14 -2
-27 -5 -14 -2 -30 -9 -38 -15 -7 -6 -19 -9 -28 -6 -8 4 -17 2 -20 -4 -4 -5
-10 -7 -15 -4 -5 3 -11 1 -14 -3 -7 -11 -46 -9 -65 2 -10 6 -12 5 -7 -2 4 -7
1 -13 -8 -13 -42 -4 -51 -2 -49 7 3 19 -27 11 -33 -8 -6 -20 -29 -24 -39 -7
-5 7 -13 5 -25 -6 -12 -11 -20 -13 -25 -6 -3 6 0 11 8 11 7 0 14 6 14 14 0 11
-5 11 -24 1 -26 -14 -67 -9 -57 7 3 5 13 4 22 -4 15 -11 15 -11 5 3 -7 9 -10
19 -6 23 7 7 -22 -2 -40 -12 -5 -2 0 -13 10 -24 9 -11 13 -19 8 -18 -6 2 -17
2 -25 0 -11 -1 -9 -4 5 -10 22 -9 29 -8 -87 -14 -37 -2 -48 1 -48 12 0 12 -4
11 -20 -3 -11 -10 -21 -15 -21 -12 -5 25 -4 34 5 47 6 9 2 8 -11 -3 -12 -11
-20 -27 -18 -38 2 -12 -2 -19 -11 -19 -8 0 -17 0 -21 0 -5 0 -8 8 -8 18 1 9 7
16 14 14 7 -1 10 2 7 6 -8 14 -54 2 -60 -15 -3 -8 -2 -11 3 -8 5 3 12 2 15 -3
2 -4 -7 -9 -20 -10 -15 -1 -22 2 -19 8 3 6 -1 10 -10 10 -9 0 -13 5 -10 10 4
6 11 7 17 4 7 -5 8 -2 4 5 -6 9 -13 8 -27 -5 -10 -9 -20 -14 -20 -11 -2 10 -6
26 -9 35 -1 4 -2 9 -2 13 0 3 -10 5 -23 5 -13 0 -22 -3 -19 -7 2 -4 -4 -13
-13 -20 -9 -8 -14 -9 -10 -3 3 6 0 11 -7 11 -8 0 -11 -8 -8 -19 3 -12 -1 -18
-12 -18 -9 0 -16 -6 -16 -14 0 -8 -5 -18 -12 -22 -7 -5 -8 -3 -3 6 6 10 4 11
-6 4 -26 -16 -41 -13 -36 7 3 10 1 17 -3 14 -5 -3 -11 -1 -15 5 -4 6 -12 7
-18 4 -7 -4 -7 -2 1 7 7 8 18 14 24 14 6 0 12 7 14 16 2 17 -11 19 -33 6 -6
-4 -15 -3 -18 3 -5 8 -12 7 -23 -2 -13 -11 -14 -11 -7 1 5 9 4 12 -3 7 -6 -3
-14 -2 -17 4 -5 8 -11 8 -20 0 -14 -12 -14 -35 0 -47 4 -4 5 -2 1 5 -5 7 -1
12 10 12 16 0 16 -1 -1 -20 -10 -11 -21 -17 -26 -15 -4 3 -11 1 -14 -5 -5 -8
-11 -8 -20 0 -9 7 -15 8 -19 1 -4 -6 -19 -3 -41 9 -27 15 -36 16 -44 6 -6 -7
-9 -15 -6 -18 3 -3 -6 -4 -20 -4 -13 1 -30 8 -37 15 -9 9 -9 12 -1 7 6 -3 14
-2 18 4 9 14 -8 12 -41 -4 -15 -8 -32 -12 -37 -9 -6 3 -28 5 -50 5 -33 -2 -37
0 -28 12 9 11 9 16 0 22 -8 4 -9 3 -5 -4 4 -7 1 -12 -8 -12 -21 0 -30 19 -12
26 20 8 29 34 11 34 -8 0 -14 -6 -12 -12 1 -7 -4 -12 -10 -11 -7 2 -13 -4 -13
-12 0 -8 0 -18 0 -22 0 -5 4 -8 9 -8 5 0 13 -3 17 -8 4 -4 -19 -6 -52 -4 -49
3 -58 7 -56 21 2 10 -3 16 -10 15 -7 -1 -34 -1 -60 0 -37 1 -48 5 -48 17 0 14
-3 14 -15 4 -15 -12 -16 -11 -19 13 0 6 -6 12 -13 12 -14 0 -28 13 -28 27 0
18 -34 18 -52 0 -9 -10 -19 -16 -22 -16 -3 1 -5 -3 -3 -9 2 -6 -4 -5 -12 2 -9
7 -13 17 -10 22 3 5 -2 9 -12 9 -14 0 -14 3 -4 15 9 11 16 12 25 5 8 -7 12 -5
12 5 0 16 -19 20 -31 8 -4 -5 -13 -8 -19 -8 -7 0 -12 -7 -12 -15 0 -10 -8 -14
-23 -12 -17 3 -20 -1 -16 -13 4 -9 10 -13 13 -8 10 14 41 15 54 1 20 -22 17
-34 -8 -34 -18 0 -22 3 -14 12 8 10 4 12 -16 8 -51 -9 -66 -7 -46 5 12 8 12
12 2 25 -11 14 -11 16 3 16 10 0 14 5 11 10 -3 6 2 10 11 10 22 0 14 9 -12 13
-10 1 -25 7 -33 11 -9 6 -12 5 -7 -2 3 -6 2 -13 -4 -17 -6 -4 -8 -10 -5 -15 8
-13 -6 -40 -22 -40 -8 0 -12 -4 -9 -9 5 -8 -22 -8 -31 -1 -4 4 -21 7 -37 9 -8
0 -18 10 -21 21 -7 22 -45 28 -45 8 0 -10 -3 -9 -9 1 -5 7 -13 11 -18 8 -5 -3
-22 1 -37 9 -16 7 -34 14 -41 14 -43 0 -224 118 -281 182 -44 50 -56 55 -51
23z m1445 -449 c11 -6 8 -14 -12 -35 -25 -26 -25 -28 -9 -42 16 -14 27 -16 51
-10 4 2 -2 6 -13 11 -19 8 -19 9 -1 9 16 1 17 3 5 19 -12 15 -12 16 2 5 9 -7
18 -10 22 -7 3 3 3 -3 0 -15 -4 -17 -1 -21 21 -21 14 0 26 -4 26 -9 0 -14 -27
-20 -38 -9 -8 8 -9 5 -5 -10 3 -12 9 -19 14 -16 16 9 80 11 70 1 -5 -5 -21 -9
-34 -9 -18 0 -24 -5 -20 -15 4 -9 9 -10 18 -3 8 7 12 5 12 -5 0 -8 -7 -15 -14
-15 -8 0 -11 -5 -7 -12 4 -6 3 -8 -3 -5 -6 4 -16 0 -23 -8 -10 -12 -9 -16 4
-21 9 -3 23 -1 30 5 8 7 25 9 42 5 19 -5 25 -4 20 5 -4 6 -11 9 -15 7 -4 -3
-13 -1 -21 4 -11 7 -11 11 -1 24 8 9 10 16 6 16 -4 0 -2 7 5 15 7 8 16 13 20
10 5 -3 12 0 15 5 5 8 14 5 28 -7 14 -12 17 -12 10 -2 -10 12 -9 18 6 31 10 8
24 18 32 21 9 4 8 6 -6 7 -11 1 -23 2 -26 2 -3 -1 -6 5 -6 13 0 8 5 11 11 7 6
-3 20 -8 30 -9 11 -2 25 -8 33 -14 7 -6 13 -8 13 -4 0 5 9 0 20 -10 19 -18 28
-46 13 -44 -19 3 -27 -2 -15 -10 7 -4 15 -17 16 -27 2 -10 9 -18 16 -16 6 1 9
-2 6 -7 -4 -5 -2 -12 4 -16 5 -3 10 0 10 8 0 7 7 14 15 14 10 0 12 -4 5 -12
-6 -7 -6 -15 1 -22 7 -7 7 -13 1 -17 -5 -3 -15 1 -22 9 -7 8 -22 15 -34 15
-17 0 -18 -2 -6 -10 8 -5 11 -10 5 -10 -5 -1 5 -7 24 -15 36 -16 48 -19 38 -8
-4 3 0 15 10 25 11 12 12 18 4 18 -7 0 1 11 17 25 17 14 35 25 42 25 6 0 8 5
4 13 -6 9 -5 9 8 0 8 -7 17 -11 20 -8 3 3 11 -2 19 -11 13 -16 11 -17 -23 -11
-26 4 -38 2 -42 -9 -3 -7 -2 -13 2 -11 4 1 8 -2 10 -8 2 -5 10 -17 18 -27 10
-11 12 -18 5 -23 -6 -3 -14 1 -17 9 -3 9 -15 16 -27 16 -19 0 -19 -1 -3 -19
14 -16 15 -20 2 -30 -10 -9 -16 -9 -21 -1 -5 8 -10 8 -20 0 -9 -8 -15 -8 -20
0 -3 5 -18 10 -33 10 -21 0 -24 2 -12 10 13 9 13 10 0 11 -8 1 -21 1 -28 0
-10 -2 -12 4 -7 18 5 18 2 21 -19 21 -14 0 -26 -4 -26 -10 0 -5 -11 -9 -24 -8
-18 2 -23 7 -20 21 2 15 0 16 -11 7 -7 -6 -12 -20 -10 -31 2 -12 -2 -19 -11
-19 -9 0 -12 5 -8 13 5 9 4 9 -6 0 -11 -10 -17 -10 -29 0 -8 6 -12 7 -9 2 4
-6 3 -17 -2 -25 -7 -12 -12 -12 -21 -3 -8 8 -17 9 -24 3 -8 -7 -12 -5 -12 5 0
8 4 12 9 9 4 -3 8 -1 8 4 0 18 -49 20 -65 2 -8 -9 -12 -20 -8 -23 3 -4 2 -7
-4 -7 -18 0 -23 28 -7 40 8 7 14 10 14 6 0 -3 9 2 19 11 11 9 17 21 14 26 -3
6 -1 7 5 3 6 -3 13 -2 16 3 4 5 2 12 -4 16 -6 4 -7 11 -4 17 4 7 2 8 -5 4 -6
-4 -8 -13 -4 -19 4 -7 0 -6 -10 2 -16 13 -22 8 -17 -14 1 -5 -1 -7 -5 -3 -4 4
-16 -2 -28 -13 -19 -18 -22 -18 -39 -2 -15 14 -18 14 -18 1 0 -8 -6 -15 -13
-15 -8 0 -14 6 -14 14 0 13 15 17 49 14 12 -2 16 4 13 18 -4 23 19 48 30 31 3
-5 13 -10 22 -10 14 0 14 2 -1 19 -10 11 -24 17 -32 14 -7 -3 -21 2 -30 11
-16 16 -39 12 -29 -5 4 -5 -1 -9 -10 -9 -9 0 -14 -4 -10 -9 3 -5 1 -12 -4 -15
-5 -4 -12 7 -16 24 -4 17 -11 28 -16 24 -5 -3 -7 -9 -5 -13 3 -4 1 -13 -4 -21
-6 -10 -12 -11 -22 -3 -22 19 -26 19 -52 -6 -14 -14 -26 -21 -26 -18 0 4 0 10
0 15 0 4 5 7 10 7 6 0 15 6 19 14 5 8 18 12 30 8 12 -3 21 -1 21 4 0 5 -4 9
-9 9 -5 0 -9 20 -8 44 1 28 5 42 11 38 6 -3 35 -7 66 -8 31 -2 60 -4 65 -6 6
-2 11 2 13 7 1 6 -11 10 -27 10 -17 0 -35 5 -40 10 -12 12 67 13 87 1z"/>
<path d="M3425 1682 c-12 -10 -46 -86 -79 -177 -91 -245 -112 -289 -149 -308
-31 -15 -29 -16 73 -15 67 0 94 3 74 7 -17 4 -36 11 -42 15 -17 10 -13 73 7
131 l18 50 85 3 85 3 27 -80 c14 -44 26 -83 26 -86 0 -3 -15 -14 -32 -25 l-33
-20 110 0 c103 1 108 2 78 15 -40 17 -44 26 -138 280 -43 116 -80 213 -84 217
-3 4 -15 -1 -26 -10z"/>
<path d="M8654 1682 c-14 -11 -52 -97 -104 -235 -94 -247 -105 -262 -179 -254
-75 8 -76 11 -76 233 0 194 0 196 24 215 13 10 32 19 42 19 10 0 19 4 19 9 0
5 -56 9 -125 10 -72 0 -125 -4 -125 -10 0 -5 10 -9 23 -9 12 0 33 -7 45 -16
21 -15 22 -20 22 -213 0 -217 -2 -223 -60 -239 -25 -7 30 -10 200 -10 157 0
225 3 204 9 -48 14 -56 29 -44 84 6 26 17 62 25 81 l14 35 83 -3 83 -3 22 -60
c30 -83 29 -111 -4 -129 -26 -14 -21 -15 82 -15 102 0 108 1 78 14 -17 7 -38
24 -46 37 -8 13 -50 118 -92 233 -42 116 -80 215 -84 222 -4 9 -12 7 -27 -5z"/>
<path d="M4476 1679 c-68 -11 -135 -55 -170 -112 -23 -38 -30 -62 -34 -121 -4
-64 -1 -81 21 -128 26 -59 57 -86 152 -138 33 -18 94 -55 136 -82 98 -63 127
-71 206 -57 35 6 65 15 68 19 2 4 -17 10 -43 14 -52 7 -227 86 -215 97 5 3 25
12 47 19 49 16 111 72 138 124 27 54 30 154 5 218 -20 51 -80 112 -131 133
-44 18 -122 24 -180 14z m139 -38 c96 -55 136 -251 74 -362 -33 -58 -68 -81
-131 -86 -75 -6 -135 32 -174 112 -50 103 -33 258 36 320 50 45 133 52 195 16z"/>
<path d="M6148 1678 c-32 -4 -71 -14 -87 -23 -142 -73 -175 -287 -62 -408 51
-56 96 -72 201 -72 105 0 150 16 201 72 50 54 64 92 63 178 0 89 -14 126 -68
183 -58 63 -136 85 -248 70z m120 -32 c38 -20 68 -54 91 -106 28 -60 29 -187
2 -245 -65 -144 -248 -138 -317 9 -29 62 -33 184 -8 244 17 42 59 90 89 102
32 14 114 11 143 -4z"/>
<path d="M7212 1679 c-118 -16 -200 -104 -209 -223 -7 -84 10 -144 54 -196 49
-57 104 -82 188 -88 86 -5 141 9 197 51 120 90 126 295 12 395 -60 53 -145 75
-242 61z m139 -42 c18 -12 47 -44 64 -71 28 -46 30 -56 30 -145 0 -74 -4 -105
-19 -134 -55 -111 -199 -130 -280 -36 -90 106 -78 316 22 384 50 34 134 35
183 2z"/>
<path d="M7830 1680 c-89 -16 -144 -48 -190 -112 -60 -82 -60 -214 -1 -295 67
-93 223 -128 370 -84 66 20 100 41 67 41 -13 0 -16 13 -16 68 0 72 4 82 35
100 16 9 -4 11 -95 11 -94 -1 -109 -3 -80 -11 61 -17 70 -32 70 -114 0 -87
-13 -100 -91 -91 -89 11 -172 73 -206 155 -19 46 -18 149 2 200 42 104 165
150 265 100 35 -18 51 -35 70 -73 l25 -50 3 64 c2 42 -1 67 -9 72 -11 7 -152
30 -167 28 -4 -1 -27 -5 -52 -9z"/>
<path d="M3720 1671 c0 -5 14 -12 31 -16 19 -4 34 -16 40 -32 14 -37 11 -363
-4 -392 -6 -13 -28 -30 -47 -37 -31 -11 -20 -12 100 -12 107 0 127 2 98 10
-57 15 -68 34 -75 132 l-6 86 32 0 c48 0 65 -13 101 -77 72 -127 101 -150 202
-159 l63 -5 -46 25 c-56 30 -134 114 -173 186 l-29 53 38 31 c32 27 38 39 42
82 4 43 2 54 -21 81 -16 19 -42 35 -70 42 -54 13 -276 15 -276 2z m236 -27
c62 -30 83 -107 42 -159 -24 -30 -74 -55 -113 -55 l-25 0 0 115 0 115 31 0
c17 0 46 -7 65 -16z"/>
<path d="M4840 1668 c0 -4 11 -8 25 -8 14 0 34 -9 45 -20 18 -18 20 -33 20
-182 0 -198 12 -236 82 -268 61 -28 177 -27 234 1 75 36 86 66 96 258 9 174
19 211 58 211 11 0 20 4 20 8 0 5 -47 9 -105 9 -58 -1 -105 -4 -105 -9 0 -4
11 -8 25 -8 48 0 72 -38 80 -125 10 -100 -1 -221 -24 -265 -34 -67 -133 -90
-217 -50 -66 32 -74 60 -74 244 0 143 2 158 20 176 11 11 31 20 45 20 14 0 25
4 25 8 0 4 -56 8 -125 8 -69 0 -125 -3 -125 -8z"/>
<path d="M5450 1670 c0 -5 11 -10 23 -10 52 0 57 -20 57 -231 0 -107 -4 -200
-8 -206 -4 -7 -26 -19 -47 -27 -37 -14 -24 -15 169 -13 l210 2 7 30 c14 59 18
105 8 105 -5 0 -9 -7 -9 -16 0 -26 -31 -70 -60 -88 -29 -17 -145 -23 -166 -8
-24 16 -34 54 -34 131 l0 81 60 0 c71 0 106 -14 119 -49 8 -21 10 -12 10 46 1
39 4 78 7 87 3 9 2 16 -4 16 -5 0 -12 -10 -16 -23 -8 -32 -45 -47 -116 -47
l-60 0 0 105 0 105 68 0 c85 0 131 -21 148 -70 l12 -35 1 40 c1 22 4 50 7 63
l6 22 -196 0 c-124 0 -196 -4 -196 -10z"/>
<path d="M6510 1668 c0 -4 11 -8 25 -8 14 0 34 -9 45 -20 19 -19 20 -33 20
-212 0 -106 -4 -199 -9 -206 -4 -7 -26 -20 -47 -27 -36 -13 -21 -14 171 -15
l210 0 18 61 c10 34 16 63 14 66 -3 2 -15 -12 -27 -33 -36 -57 -73 -74 -160
-74 -46 0 -81 5 -88 12 -8 8 -12 68 -12 204 0 178 1 193 21 218 12 15 30 26
45 26 13 0 24 4 24 8 0 5 -56 9 -125 9 -69 0 -125 -4 -125 -9z"/>
<path d="M4713 908 c-6 -7 -27 -57 -47 -112 -43 -116 -61 -152 -78 -159 -7 -3
7 -5 32 -5 25 0 39 2 33 5 -15 6 -17 42 -3 77 8 23 15 26 59 26 46 0 50 -2 60
-31 14 -42 14 -66 -1 -72 -7 -3 11 -6 41 -6 52 -1 53 0 33 17 -11 9 -39 68
-61 131 -51 141 -54 146 -68 129z"/>
<path d="M3163 895 c-45 -19 -73 -69 -73 -128 0 -95 48 -141 145 -141 95 0
147 47 148 134 2 115 -110 183 -220 135z m132 -28 c54 -54 59 -148 11 -204
-19 -22 -33 -28 -64 -28 -51 0 -88 32 -103 89 -35 130 71 228 156 143z"/>
<path d="M3438 893 c21 -14 22 -23 22 -129 0 -97 -2 -114 -17 -123 -14 -8 -3
-10 42 -10 33 0 53 3 45 6 -24 9 -30 25 -30 77 l0 49 42 -6 c23 -3 48 -14 55
-23 11 -15 13 -12 13 29 l0 47 -20 -20 c-12 -12 -33 -20 -55 -20 l-35 0 0 64
c0 63 0 64 -31 70 -48 9 -56 6 -31 -11z"/>
<path d="M3905 896 c-80 -35 -111 -128 -69 -209 22 -41 93 -71 156 -65 56 6
74 19 84 63 l7 30 -25 -35 c-83 -121 -240 6 -183 148 34 85 139 99 179 24 l15
-27 1 33 c0 26 -5 34 -26 42 -35 14 -103 12 -139 -4z"/>
<path d="M5000 902 c0 -5 7 -12 15 -16 12 -4 15 -26 15 -113 0 -110 -4 -126
-30 -136 -8 -3 17 -5 55 -5 39 0 61 3 50 5 -11 3 -23 10 -27 17 -4 6 -8 64 -8
130 l0 118 37 -7 c87 -16 123 -58 123 -142 0 -57 -19 -89 -64 -109 -19 -8 -24
-13 -13 -14 35 0 87 29 107 62 42 69 16 159 -55 193 -44 20 -205 34 -205 17z"/>
<path d="M5425 901 c-51 -4 -85 -9 -77 -14 8 -6 12 -42 12 -123 0 -110 -1
-115 -22 -124 -16 -6 12 -9 88 -9 119 -1 125 1 123 52 0 15 -2 17 -6 7 -13
-35 -37 -50 -78 -50 -53 0 -65 13 -65 72 l0 48 39 0 c22 0 43 -5 46 -10 12
-19 25 1 25 38 0 36 0 36 -16 14 -11 -16 -25 -22 -55 -22 l-39 0 0 55 0 55 49
0 c40 0 53 -4 65 -22 16 -22 16 -22 16 10 0 17 -3 31 -7 30 -5 -1 -48 -4 -98
-7z"/>
<path d="M6528 895 c-31 -17 -45 -64 -28 -95 6 -11 30 -32 53 -47 50 -31 57
-40 57 -76 0 -20 -7 -31 -25 -39 -33 -15 -68 1 -96 44 l-21 33 6 -35 c9 -48
19 -55 80 -55 72 0 98 23 94 79 -3 37 -8 44 -60 79 -48 31 -58 43 -58 65 0 71
85 68 103 -3 3 -12 5 -5 6 16 1 25 -4 39 -15 43 -26 10 -67 6 -96 -9z"/>
<path d="M7031 892 c-51 -26 -75 -63 -75 -119 1 -55 24 -106 59 -129 64 -42
179 -21 216 40 25 41 25 121 0 162 -36 59 -131 82 -200 46z m134 -25 c60 -60
56 -178 -8 -218 -113 -70 -215 125 -117 223 40 39 82 38 125 -5z"/>
<path d="M7300 901 c0 -5 7 -11 15 -15 12 -4 15 -27 15 -120 0 -99 -2 -116
-17 -125 -14 -8 -4 -10 42 -11 57 0 58 1 37 16 -18 12 -22 25 -22 65 0 71 33
65 83 -16 33 -54 45 -63 97 -70 l45 -7 -30 17 c-43 24 -64 44 -91 92 l-25 41
26 26 c42 42 28 89 -33 106 -45 12 -142 13 -142 1z"/>
<path d="M7865 898 c-45 -132 -90 -237 -106 -250 -21 -18 -20 -18 27 -18 43 0
46 1 29 14 -17 12 -18 18 -7 55 13 41 13 41 61 41 44 0 50 -3 59 -27 21 -57
21 -62 4 -72 -13 -8 -4 -10 36 -11 50 0 51 1 34 18 -9 9 -37 72 -62 140 -41
113 -63 145 -75 110z"/>
<path d="M8050 901 c0 -5 7 -11 15 -15 12 -4 15 -27 15 -121 0 -111 -1 -116
-22 -125 -17 -6 -5 -9 47 -9 63 -1 67 1 45 12 -24 12 -25 16 -28 135 -2 112
-1 122 15 122 29 -1 93 -27 114 -46 24 -22 42 -87 34 -125 -9 -40 -52 -89 -78
-90 -12 0 -16 -3 -10 -6 23 -9 82 18 108 48 20 25 25 41 25 86 0 49 -4 59 -33
88 -22 22 -48 36 -85 44 -63 13 -162 15 -162 2z"/>
<path d="M8455 896 c-45 -20 -76 -59 -82 -104 -20 -146 145 -228 255 -127 35
32 37 36 37 98 0 56 -4 69 -25 92 -47 52 -123 68 -185 41z m99 -6 c66 -25 91
-159 41 -218 -72 -86 -175 -22 -175 108 0 46 4 56 34 86 35 35 57 41 100 24z"/>
<path d="M8720 902 c0 -5 7 -12 15 -16 12 -4 15 -26 15 -113 0 -110 -4 -126
-30 -136 -8 -3 14 -5 50 -6 49 0 59 3 43 9 -20 8 -23 17 -23 65 0 41 4 55 14
55 18 0 42 -23 60 -58 23 -44 60 -72 102 -78 l39 -6 -30 20 c-36 23 -66 56
-91 100 -18 32 -18 32 4 48 29 20 30 74 2 99 -23 21 -170 36 -170 17z"/>
<path d="M4267 890 c28 -12 37 -60 30 -158 -4 -57 -10 -80 -23 -89 -15 -11
-10 -13 37 -13 50 0 52 1 29 13 -24 12 -25 17 -27 107 l-3 95 26 -30 c15 -16
62 -67 105 -112 l79 -83 0 115 c0 62 4 125 10 139 9 25 8 26 -27 26 -34 0 -35
-1 -17 -14 16 -12 20 -29 23 -100 1 -47 -1 -86 -5 -85 -5 0 -49 45 -99 99 -81
90 -93 99 -125 99 -30 0 -32 -1 -13 -9z"/>
<path d="M5984 884 c13 -12 16 -38 16 -117 0 -104 -4 -120 -30 -130 -8 -3 12
-6 45 -6 45 0 56 2 43 10 -14 8 -18 23 -18 64 l0 55 80 0 80 0 0 -55 c0 -48
-3 -57 -22 -65 -18 -7 -9 -9 37 -9 45 0 56 2 43 10 -16 9 -18 26 -18 124 0 98
2 115 18 124 13 8 4 10 -38 10 -42 0 -51 -2 -37 -10 12 -7 17 -23 17 -59 l0
-50 -80 0 -80 0 0 50 c0 36 5 52 18 59 13 8 5 10 -36 11 -49 0 -52 -1 -38 -16z"/>
<path d="M6893 508 c-5 -7 -31 -68 -57 -135 -26 -68 -55 -127 -64 -133 -13 -7
-6 -9 28 -9 25 0 39 3 33 6 -15 6 -17 42 -3 77 8 23 15 26 58 26 45 0 49 -2
60 -33 15 -43 15 -64 0 -70 -7 -3 9 -6 36 -6 46 -1 48 0 34 17 -9 9 -37 74
-63 145 -26 70 -49 127 -50 127 -1 0 -7 -6 -12 -12z"/>
<path d="M2665 501 c-16 -5 -23 -9 -14 -10 25 -2 29 -22 29 -131 0 -74 -4
-102 -15 -114 -13 -13 -9 -15 40 -21 62 -8 82 -1 41 14 l-26 11 0 126 0 126
38 -7 c82 -15 122 -62 122 -143 0 -40 -6 -57 -26 -81 -14 -17 -36 -32 -47 -32
-16 -1 -17 -3 -5 -6 28 -7 87 24 108 59 41 67 18 153 -49 188 -43 22 -150 33
-196 21z"/>
<path d="M3704 493 c-27 -83 -97 -253 -107 -257 -7 -2 5 -5 27 -5 32 -1 37 1
27 13 -9 11 -9 25 -1 55 11 41 11 41 60 41 28 0 50 -1 50 -2 0 -2 7 -21 14
-43 10 -28 11 -44 4 -52 -8 -10 0 -13 38 -13 36 1 45 3 33 10 -9 5 -38 68 -65
140 -46 124 -67 153 -80 113z"/>
<path d="M4070 488 c-106 -54 -105 -196 0 -251 25 -13 51 -17 93 -14 65 4 74
10 87 58 7 28 7 31 -3 15 -32 -53 -57 -69 -99 -63 -61 8 -99 51 -106 116 -8
90 36 151 108 151 30 0 44 -6 64 -31 l26 -31 0 26 c0 49 -94 62 -170 24z"/>
<path d="M4796 503 c-28 -4 -28 -5 -7 -19 19 -14 21 -25 21 -119 0 -94 -2
-105 -21 -119 -20 -13 -18 -15 34 -21 67 -9 93 -2 55 13 -27 11 -27 12 -30
128 -2 64 0 120 3 126 10 17 95 -12 124 -42 57 -59 41 -174 -28 -206 l-32 -15
33 5 c75 13 123 82 108 158 -6 34 -42 76 -82 96 -25 13 -136 22 -178 15z"/>
<path d="M5205 502 c-6 -4 -16 -25 -24 -47 -38 -109 -74 -197 -88 -210 -13
-13 -10 -15 23 -15 30 0 34 2 25 14 -9 11 -9 25 -1 56 l11 41 51 -3 c50 -3 51
-4 65 -42 10 -29 10 -42 2 -52 -9 -12 -3 -14 37 -14 37 1 45 3 32 10 -9 6 -38
68 -64 140 -26 71 -50 130 -53 130 -3 0 -11 -4 -16 -8z"/>
<path d="M5405 502 c-24 -6 -27 -9 -12 -14 15 -6 17 -22 17 -123 0 -101 -2
-117 -17 -123 -14 -5 -12 -8 12 -13 17 -4 48 -7 70 -8 l40 -1 -32 20 -33 20 0
121 0 121 37 -7 c81 -15 121 -53 130 -123 7 -52 -19 -105 -60 -126 -26 -12
-28 -16 -11 -16 33 0 87 41 107 82 32 65 0 145 -68 173 -39 17 -140 26 -180
17z"/>
<path d="M5848 503 l-27 -4 21 -21 c18 -18 19 -30 16 -120 -2 -81 -6 -102 -21
-112 -15 -12 -13 -14 20 -20 21 -3 52 -6 68 -5 l30 0 -27 14 c-33 19 -40 50
-36 170 l3 90 33 -3 c19 -1 47 -9 63 -18 88 -45 92 -192 6 -229 -20 -9 -25
-14 -14 -15 61 -1 127 71 127 138 0 40 -38 93 -81 114 -37 18 -133 30 -181 21z"/>
<path d="M7635 498 c-45 -132 -90 -237 -106 -251 -21 -17 -20 -17 22 -16 24 0
38 3 32 6 -16 6 -16 30 -2 72 10 29 14 31 59 31 47 0 49 -1 60 -36 7 -19 10
-44 7 -55 -5 -17 0 -19 39 -19 42 0 43 1 26 18 -10 10 -38 73 -62 140 -41 112
-63 144 -75 110z"/>
<path d="M8193 498 c-5 -7 -25 -53 -43 -103 -40 -107 -59 -147 -74 -157 -6 -4
6 -8 28 -8 32 0 37 2 27 14 -10 11 -9 24 0 56 l12 41 50 -3 c48 -3 51 -4 64
-42 10 -29 10 -42 2 -52 -9 -12 -3 -14 37 -14 35 1 44 3 33 10 -9 5 -37 68
-64 140 -26 71 -51 130 -55 130 -4 0 -12 -6 -17 -12z"/>
<path d="M8815 502 c-6 -4 -16 -25 -24 -47 -38 -109 -74 -197 -88 -210 -13
-13 -10 -15 23 -15 30 0 34 2 25 14 -9 11 -9 25 -1 56 l11 41 51 -3 c50 -3 51
-4 65 -42 10 -29 10 -42 2 -52 -9 -12 -3 -14 37 -14 37 1 45 3 32 10 -9 6 -38
68 -64 140 -26 71 -50 130 -53 130 -3 0 -11 -4 -16 -8z"/>
<path d="M2993 489 c15 -9 17 -26 17 -125 0 -110 -1 -115 -22 -124 -16 -6 11
-9 88 -9 108 -1 112 0 118 22 11 43 6 52 -14 19 -19 -31 -23 -33 -73 -30 l-52
3 -3 58 -3 57 39 0 c21 0 43 -5 50 -12 9 -9 12 -9 12 3 0 7 3 25 7 39 6 24 6
24 -14 8 -11 -10 -36 -18 -56 -18 l-37 0 0 55 0 55 49 0 c39 0 52 -4 64 -22
l16 -23 0 28 1 27 -102 0 c-75 -1 -98 -3 -85 -11z"/>
<path d="M4453 489 c14 -8 17 -25 17 -104 0 -104 10 -137 47 -154 34 -15 99
-14 132 4 38 19 51 60 51 156 0 57 4 82 16 93 14 15 11 16 -33 15 -26 0 -41
-3 -33 -6 26 -10 30 -25 30 -119 0 -82 -2 -93 -23 -112 -30 -28 -85 -29 -121
-1 -25 20 -26 24 -26 119 0 84 3 101 18 109 13 8 4 10 -38 10 -42 0 -51 -2
-37 -10z"/>
<path d="M6170 490 c11 -7 16 -34 18 -114 3 -95 2 -106 -17 -125 l-21 -21 110
0 c102 0 110 1 110 19 0 11 3 28 6 38 5 15 3 15 -6 -2 -21 -34 -42 -45 -87
-45 -50 0 -63 17 -63 79 0 41 0 41 39 41 23 0 46 -7 55 -16 15 -14 16 -11 16
28 -1 34 -3 39 -11 26 -7 -13 -23 -18 -54 -18 l-45 0 0 55 0 55 49 0 c40 0 53
-4 65 -22 l16 -22 0 27 0 27 -97 0 c-66 0 -93 -3 -83 -10z"/>
<path d="M7180 493 c26 -10 30 -26 30 -130 0 -79 -3 -105 -16 -117 -14 -15
-11 -16 38 -16 41 1 49 3 36 11 -14 8 -18 23 -18 64 l0 55 80 0 80 0 0 -49 c0
-32 -6 -55 -16 -65 -14 -15 -11 -16 38 -16 41 1 49 3 36 11 -16 9 -18 26 -18
124 0 98 2 115 18 124 13 8 2 10 -43 10 -33 0 -53 -3 -45 -6 23 -9 30 -24 30
-70 l0 -43 -80 0 -80 0 0 50 c0 36 5 52 18 59 13 8 2 10 -43 10 -33 0 -53 -3
-45 -6z"/>
<path d="M8380 480 c17 -17 20 -33 20 -115 0 -82 -3 -98 -20 -115 l-20 -20 53
1 c28 1 44 3 34 6 -26 7 -37 44 -37 131 l0 77 108 -114 107 -113 0 124 c0 91
4 129 14 141 12 15 9 17 -30 17 -42 0 -43 0 -21 -16 20 -14 22 -23 21 -102 l0
-87 -97 103 c-77 81 -103 102 -125 102 l-27 0 20 -20z"/>
</g>
</svg>
