<?xml version="1.0" standalone="no"?>
<!DOCTYPE svg PUBLIC "-//W3C//DTD SVG 20010904//EN"
 "http://www.w3.org/TR/2001/REC-SVG-20010904/DTD/svg10.dtd">
<svg version="1.0" xmlns="http://www.w3.org/2000/svg"
 width="713.000000pt" height="691.000000pt" viewBox="0 0 713.000000 691.000000"
 preserveAspectRatio="xMidYMid meet">
<metadata>
Created by potrace 1.15, written by Peter Selinger 2001-2017
</metadata>
<g transform="translate(0.000000,691.000000) scale(0.100000,-0.100000)"
fill="#000000" stroke="none">
<path d="M3495 6301 c-3 -5 6 -19 21 -30 25 -20 25 -22 20 -108 -11 -172 -12
-175 -37 -194 -29 -21 -22 -25 68 -34 67 -6 83 3 53 30 -16 14 -20 31 -20 78
l0 60 64 -5 c35 -3 69 -9 75 -12 12 -8 15 -85 3 -102 -4 -6 -18 -17 -31 -23
-34 -18 -16 -28 67 -34 58 -5 72 -3 72 8 0 8 -8 19 -18 24 -17 9 -18 21 -14
128 5 124 20 183 47 183 9 0 15 6 13 13 -5 13 -106 22 -145 12 -28 -7 -30 -21
-5 -27 21 -6 33 -56 25 -101 -6 -29 -27 -34 -105 -21 l-38 7 0 52 c0 43 4 55
22 67 36 24 13 38 -62 38 -38 0 -71 -4 -75 -9z"/>
<path d="M3933 6283 c-20 -7 -15 -19 13 -31 24 -12 25 -15 19 -73 -6 -54 -15
-108 -32 -192 -3 -18 -15 -32 -29 -37 -28 -11 -31 -27 -6 -34 35 -10 142 -18
142 -10 0 4 -8 16 -17 26 -15 17 -16 29 -4 126 14 127 26 161 58 173 23 8 28
33 7 34 -14 1 -107 16 -124 20 -8 2 -21 1 -27 -2z"/>
<path d="M3031 6259 c-24 -4 -50 -14 -58 -20 -12 -11 -11 -14 10 -25 19 -10
26 -26 35 -81 35 -200 35 -206 6 -217 -8 -3 -14 -13 -14 -22 0 -13 6 -15 33
-10 17 4 66 11 107 16 74 10 139 26 151 39 4 3 10 25 14 49 6 34 4 42 -9 42
-8 0 -22 -13 -31 -29 -16 -32 -24 -36 -98 -50 -31 -5 -50 -5 -54 2 -7 12 -42
221 -43 254 0 13 8 24 20 28 11 3 20 13 20 21 0 16 -21 16 -89 3z"/>
<path d="M4195 6228 c-81 -47 -70 -139 25 -223 34 -31 43 -63 25 -91 -27 -42
-93 -13 -120 53 -19 44 -30 41 -45 -12 -15 -55 -8 -79 21 -70 13 4 27 1 38 -9
27 -24 102 -31 138 -13 28 15 63 69 63 96 0 18 -30 61 -83 120 -50 55 -57 85
-26 104 32 20 76 -9 90 -59 8 -24 17 -44 21 -44 11 0 25 31 33 73 6 31 4 38
-11 43 -11 3 -33 12 -50 19 -49 21 -97 26 -119 13z"/>
<path d="M2775 6199 c-38 -11 -92 -25 -118 -32 -52 -13 -62 -29 -25 -37 18 -5
27 -19 41 -70 39 -137 47 -192 31 -224 -8 -16 -12 -31 -10 -33 5 -5 204 42
254 60 17 6 33 16 33 22 1 5 3 22 4 37 4 31 -17 64 -33 54 -7 -4 -12 -18 -12
-30 0 -29 -32 -51 -95 -68 -54 -15 -59 -10 -70 60 -7 50 -1 58 53 68 23 5 38
2 51 -10 10 -9 21 -16 24 -16 11 0 8 64 -4 99 -11 32 -29 42 -29 16 0 -22 -41
-45 -85 -48 -40 -2 -45 5 -49 67 -1 24 4 31 24 37 47 13 107 10 121 -7 12 -14
14 -14 26 2 10 14 9 22 -4 45 -20 34 -32 34 -128 8z"/>
<path d="M4458 6142 c-8 -9 -19 -29 -26 -44 -14 -35 1 -41 43 -17 36 21 85 15
85 -10 0 -10 -3 -21 -7 -25 -4 -4 -15 -30 -24 -59 -52 -153 -56 -162 -88 -172
-17 -5 -30 -13 -28 -19 2 -5 35 -20 75 -34 69 -25 98 -24 74 0 -19 19 -14 55
26 175 31 94 40 113 57 113 31 0 46 -14 54 -49 3 -18 11 -32 16 -33 13 -1 48
71 41 87 -2 7 -29 21 -58 30 -29 9 -80 27 -113 40 -92 35 -110 37 -127 17z"/>
<path d="M2291 6016 c-49 -22 -94 -48 -101 -59 -11 -18 -10 -19 14 -15 30 6
33 3 73 -77 87 -174 84 -167 67 -193 -22 -33 -13 -37 43 -16 119 45 176 87
205 154 25 57 25 89 3 137 -56 121 -142 140 -304 69z m188 -33 c35 -26 60 -79
60 -128 0 -49 -16 -80 -55 -106 -30 -20 -74 -26 -74 -10 0 6 -22 57 -50 115
-27 58 -50 110 -50 115 0 6 12 17 28 26 35 20 106 14 141 -12z"/>
<path d="M4836 5964 c-85 -47 -123 -117 -114 -214 4 -41 12 -58 39 -86 53 -56
83 -67 158 -61 59 5 68 8 101 44 54 56 70 93 70 162 0 56 -3 64 -36 101 -20
22 -50 46 -66 55 -40 19 -115 19 -152 -1z m167 -53 c19 -19 21 -115 3 -149
-24 -46 -76 -102 -104 -113 -36 -14 -91 7 -103 38 -25 66 4 157 68 214 32 27
41 31 80 26 25 -2 50 -10 56 -16z"/>
<path d="M5190 5801 c0 -6 5 -13 10 -16 18 -11 10 -40 -20 -73 -16 -18 -30
-40 -30 -48 0 -8 -4 -14 -8 -14 -5 0 -30 -27 -55 -60 -35 -45 -53 -60 -72 -60
-14 0 -25 -4 -25 -9 0 -13 81 -77 109 -86 22 -7 23 -5 16 25 -5 24 -1 39 17
65 46 68 54 48 48 -112 -1 -38 2 -43 47 -77 26 -20 71 -59 99 -88 38 -38 56
-49 69 -44 14 5 16 9 7 18 -17 17 -15 45 6 66 9 10 42 47 72 83 77 90 90 100
123 93 15 -3 27 -2 27 3 -1 19 -102 114 -118 111 -9 -3 -15 -11 -13 -19 2 -8
5 -21 7 -29 5 -15 -168 -213 -190 -218 -23 -5 -48 36 -50 85 -2 26 -6 65 -10
86 l-8 37 48 0 c56 1 83 18 103 66 11 28 10 37 -5 65 -21 41 -26 46 -108 108
-64 48 -96 62 -96 42z"/>
<path d="M1820 5721 c0 -15 8 -57 19 -92 38 -131 53 -210 48 -249 -6 -50 6
-51 59 -9 45 36 49 53 14 58 -56 7 -54 58 5 106 34 28 49 35 67 30 40 -13 49
-26 42 -58 -8 -37 2 -34 74 19 39 29 48 41 40 51 -6 7 -21 13 -35 13 -21 0
-119 47 -248 120 -22 12 -50 26 -62 31 -21 8 -23 5 -23 -20z"/>
<path d="M1630 5579 c-14 -11 -33 -27 -42 -34 -10 -8 -18 -22 -18 -31 0 -12 6
-14 29 -9 25 5 35 -1 90 -61 34 -37 59 -69 57 -71 -2 -2 -44 3 -92 11 -172 28
-204 30 -226 9 -11 -10 -24 -26 -30 -37 -9 -16 -7 -18 15 -14 19 4 36 -6 78
-46 30 -28 62 -63 73 -76 10 -14 30 -37 43 -52 23 -24 24 -29 12 -61 -14 -40
-50 -56 -77 -35 -10 7 -54 48 -100 93 -74 71 -82 83 -78 108 3 16 2 27 -3 25
-16 -6 -111 -99 -111 -108 0 -13 17 -13 42 1 17 9 27 3 77 -48 32 -32 76 -75
99 -95 27 -24 42 -47 44 -67 l3 -30 56 53 c30 29 54 57 51 64 -2 7 1 12 8 12
16 0 95 78 87 86 -4 4 -19 9 -34 10 -37 4 -176 147 -148 152 20 4 227 -24 274
-38 32 -9 61 -5 61 9 0 4 -28 39 -62 78 -141 158 -147 166 -140 199 5 29 -5
30 -38 3z"/>
<path d="M3259 5388 c-18 -29 -35 -57 -37 -61 -2 -5 -30 -50 -62 -100 -33 -51
-104 -165 -160 -254 -55 -89 -107 -166 -115 -173 -9 -8 -63 -9 -184 -4 -142 6
-173 10 -180 23 -5 9 -8 57 -6 106 3 93 -4 115 -36 115 -10 0 -21 5 -24 11 -4
5 -7 79 -7 164 0 114 -4 157 -13 165 -10 8 -45 3 -130 -17 -95 -22 -119 -31
-125 -48 -13 -35 -40 -149 -44 -185 -4 -38 -30 -146 -52 -222 -8 -26 -14 -57
-14 -70 0 -13 -7 -51 -16 -83 -8 -33 -26 -109 -39 -170 -48 -223 -56 -246 -78
-255 -39 -16 -188 -60 -201 -60 -12 0 -123 -128 -231 -265 -22 -27 -43 -53
-48 -56 -5 -3 -16 -18 -25 -32 -41 -62 -155 -207 -163 -207 -5 0 -9 -11 -9
-25 0 -15 6 -25 15 -25 8 0 30 -17 48 -37 l34 -36 262 2 263 2 64 62 64 63
214 3 c206 2 215 2 225 -18 6 -11 11 -31 11 -45 0 -19 13 -35 50 -63 28 -20
50 -40 50 -44 0 -6 -59 -47 -84 -58 -8 -3 -45 -31 -112 -82 -111 -86 -294
-313 -294 -364 0 -11 -7 -31 -16 -43 -24 -34 -54 -212 -54 -319 0 -96 23 -194
56 -233 76 -92 129 -139 196 -172 161 -79 219 -89 513 -86 l240 3 3 -46 c3
-44 7 -51 73 -109 55 -49 69 -67 69 -90 0 -16 -6 -32 -12 -37 -7 -4 -78 -12
-158 -18 l-145 -10 -80 -118 c-147 -217 -178 -262 -202 -288 -26 -28 -22 -59
7 -59 10 0 23 -7 30 -15 7 -8 18 -15 25 -15 6 0 20 -9 30 -20 22 -24 43 -25
115 -5 30 9 71 18 90 21 19 2 55 11 80 18 25 7 108 28 185 46 106 25 147 40
168 59 15 13 27 29 27 34 0 16 101 212 113 219 7 4 139 8 294 8 209 0 284 -3
289 -12 8 -13 23 -86 53 -262 15 -91 22 -113 42 -129 22 -17 140 -121 153
-134 10 -10 274 -39 389 -43 31 -1 59 -5 62 -9 8 -13 92 -12 103 1 12 15 17
102 8 138 -3 14 -7 107 -8 208 -3 152 -6 186 -19 195 -8 7 -29 33 -47 58 -17
26 -42 49 -54 52 -13 2 -59 12 -103 21 -44 9 -90 19 -101 21 -19 4 -22 14 -29
97 -4 51 -11 98 -17 105 -17 21 30 56 122 92 47 18 112 46 145 61 33 15 93 40
134 55 108 40 125 65 96 138 -17 41 2 63 67 81 82 23 175 66 216 101 18 15 44
48 59 73 23 39 27 59 31 154 l4 109 -37 62 c-31 50 -119 158 -193 236 -38 40
-217 137 -337 183 -138 53 -216 93 -258 132 -26 24 -47 48 -47 54 0 7 15 12
35 12 18 0 38 6 42 13 4 7 28 24 53 38 43 24 44 25 59 101 l14 77 31 -5 c17
-3 63 -11 101 -19 39 -8 105 -20 149 -27 43 -7 85 -17 93 -23 15 -11 36 -64
74 -182 11 -35 25 -63 32 -63 7 0 27 -14 46 -30 38 -34 66 -36 206 -19 44 5
109 12 145 15 45 3 69 9 78 21 9 12 12 63 12 178 -1 88 2 205 6 260 7 99 6
100 -17 112 -33 17 -157 62 -198 73 -19 5 -39 14 -46 22 -14 15 -35 94 -35
133 0 15 -11 60 -25 102 -27 79 -27 78 15 123 33 36 115 133 122 144 7 12
-110 216 -124 216 -5 0 -39 19 -76 42 l-67 41 -108 0 c-61 1 -112 -4 -118 -10
-5 -5 -17 -37 -25 -69 -8 -32 -19 -74 -24 -93 -5 -19 -14 -37 -20 -41 -7 -4
-51 -11 -98 -14 -48 -4 -92 -12 -99 -18 -7 -6 -13 -30 -13 -54 0 -62 -17 -74
-103 -74 l-72 0 -38 83 c-48 103 -62 133 -80 177 -9 19 -34 76 -57 125 -64
138 -68 148 -81 183 -15 41 -53 72 -90 72 -15 0 -30 4 -33 9 -3 5 -17 12 -32
15 -21 6 -38 -4 -100 -56 -62 -53 -74 -67 -74 -93 0 -16 25 -102 55 -190 49
-142 116 -343 160 -475 8 -28 16 -103 19 -195 11 -325 18 -451 27 -479 5 -15
6 -32 3 -37 -10 -16 15 -47 43 -52 88 -17 130 -31 151 -50 12 -11 22 -25 22
-30 0 -21 65 -88 120 -126 33 -22 108 -58 168 -81 203 -78 356 -163 400 -223
8 -10 36 -41 63 -70 27 -28 49 -55 49 -59 0 -5 16 -30 35 -57 34 -47 35 -51
35 -140 0 -104 -13 -137 -75 -194 -37 -34 -139 -79 -211 -93 -31 -6 -31 -5
-33 38 -9 223 -7 210 -51 248 -22 20 -40 41 -40 48 0 29 -35 18 -205 -69 -99
-51 -224 -114 -277 -141 -54 -26 -107 -58 -118 -70 -11 -12 -32 -62 -47 -110
-21 -70 -31 -89 -47 -93 -12 -2 -93 -9 -181 -16 -88 -6 -176 -13 -195 -16 -19
-2 -102 -9 -183 -15 -176 -13 -164 -20 -221 117 -21 50 -44 97 -51 105 -7 8
-15 26 -18 40 -9 37 -45 90 -65 97 -9 3 -25 13 -34 21 -16 13 -27 12 -101 -8
-47 -12 -90 -26 -97 -30 -13 -8 -14 -86 -4 -327 l5 -123 -218 -1 c-258 -1
-259 -1 -346 17 -72 15 -193 70 -235 107 -88 78 -118 126 -147 238 -14 54 -14
74 0 174 17 116 64 257 106 317 11 14 19 31 19 36 0 5 7 12 15 16 8 3 15 11
15 18 0 7 16 27 35 43 19 17 35 35 35 41 0 5 15 21 33 34 17 13 36 30 40 37
12 20 163 128 222 160 l53 27 46 -29 c25 -17 86 -56 136 -88 88 -57 90 -58
109 -40 11 10 37 25 58 32 21 7 44 18 51 24 12 9 52 88 52 102 0 6 31 79 65
150 12 28 31 73 41 100 10 28 24 59 31 70 21 32 16 47 -37 101 -27 28 -70 78
-96 110 l-46 59 6 91 c3 50 8 97 11 105 6 15 109 80 176 110 20 9 45 27 57 39
11 12 44 95 72 184 29 88 56 170 61 181 4 11 31 93 59 182 l51 163 -25 47
c-13 27 -30 67 -37 91 -7 24 -24 52 -38 63 -86 66 -105 79 -121 79 -10 0 -32
-23 -51 -52z m105 -51 l38 -32 -51 -155 c-83 -249 -91 -275 -91 -298 0 -11 -4
-23 -9 -27 -5 -3 -15 -29 -21 -58 -16 -81 -56 -190 -71 -199 -8 -4 -45 -21
-84 -39 -178 -81 -171 -75 -179 -181 -2 -35 -7 -76 -10 -93 -3 -16 -8 -70 -12
-120 l-6 -90 35 -40 c20 -22 61 -71 93 -108 l58 -69 -21 -41 c-31 -61 -50
-108 -59 -142 -4 -16 -12 -39 -19 -50 -6 -11 -20 -46 -30 -77 -11 -32 -23 -58
-27 -58 -4 0 -8 -9 -8 -20 0 -11 -3 -20 -6 -20 -10 0 -77 42 -98 62 -11 10
-24 18 -29 18 -4 0 -23 11 -41 25 -18 14 -38 25 -44 25 -7 0 -12 3 -12 8 0 4
-12 13 -27 20 -16 6 -43 26 -62 42 -18 17 -37 30 -41 30 -16 0 -30 55 -30 115
0 105 28 96 -302 94 l-289 -1 -33 -52 c-65 -100 -44 -93 -300 -95 -124 -1
-226 2 -226 6 0 7 97 133 152 198 9 11 54 67 100 125 46 58 86 107 91 108 4 2
14 16 22 32 15 28 44 41 203 91 41 13 78 31 83 40 10 19 32 105 55 214 14 66
24 108 54 230 12 48 41 180 60 275 37 180 56 250 70 256 20 8 122 33 138 34 9
0 12 -27 13 -97 1 -54 4 -127 8 -163 5 -58 8 -65 31 -70 23 -5 25 -11 26 -61
2 -83 15 -158 30 -170 15 -12 372 -34 409 -25 14 4 37 25 52 49 15 23 56 88
92 144 37 56 82 128 101 160 123 200 176 283 181 283 3 0 23 -15 43 -33z m713
-205 c11 -26 29 -67 39 -92 10 -25 26 -64 36 -87 10 -23 18 -45 18 -48 0 -3
16 -41 36 -83 20 -42 40 -86 45 -97 5 -11 24 -56 43 -100 l35 -80 181 -3 180
-2 11 27 c6 16 13 43 14 61 1 18 6 37 11 42 5 5 43 12 84 16 98 8 128 19 134
52 3 15 11 60 18 100 l12 72 81 0 c94 0 101 -4 156 -105 18 -33 38 -67 46 -76
11 -13 7 -22 -34 -61 -76 -73 -103 -105 -105 -125 -3 -21 39 -199 53 -225 5
-10 9 -26 9 -36 0 -21 47 -209 56 -223 7 -11 130 -70 186 -88 l35 -11 -3 -93
c-6 -176 -16 -257 -33 -266 -15 -8 -95 -13 -211 -15 l-54 -1 -12 40 c-7 22
-21 62 -33 88 -12 27 -21 57 -21 66 0 45 -41 58 -369 111 -130 21 -197 28
-203 22 -11 -11 -22 -55 -39 -157 -6 -33 -14 -64 -19 -68 -4 -5 -58 2 -120 14
-138 29 -141 32 -141 182 0 114 -7 294 -18 467 -8 110 -12 127 -95 370 -48
140 -91 269 -95 285 -4 17 -13 40 -19 52 -7 12 -12 29 -12 39 0 17 67 83 85
83 6 1 20 -21 32 -47z m696 -2425 c-1 -61 -5 -155 -9 -208 -7 -106 -2 -100
-99 -129 -41 -13 -135 -50 -192 -76 -17 -8 -36 -14 -43 -14 -16 0 -100 -39
-101 -48 -5 -39 -2 -375 3 -378 14 -9 122 -35 222 -55 55 -10 103 -22 106 -26
4 -5 3 -78 -2 -163 -5 -85 -9 -172 -10 -194 l-1 -39 -66 6 c-36 3 -149 11
-251 18 -102 7 -189 16 -195 21 -5 5 -11 19 -12 31 -1 12 -13 85 -27 162 -15
77 -28 153 -31 168 -3 16 -8 33 -11 39 -9 14 -790 3 -809 -12 -13 -11 -29 -56
-57 -164 l-13 -50 -70 -13 c-39 -8 -79 -15 -90 -17 -11 -2 -27 -6 -35 -9 -16
-6 -228 -46 -270 -51 -28 -3 -60 22 -42 33 6 3 17 18 24 31 27 50 129 200 136
200 4 0 13 13 20 29 15 35 30 38 208 51 86 6 130 13 135 22 5 7 9 41 9 74 0
53 -4 65 -27 91 -16 17 -43 40 -60 52 -36 24 -55 73 -58 151 -1 25 -6 127 -10
227 l-7 182 34 14 c68 28 78 30 84 10 3 -10 12 -34 19 -53 7 -19 32 -93 54
-165 60 -190 50 -178 141 -170 41 4 98 9 125 10 233 15 601 47 648 57 67 13
75 23 111 146 l23 75 209 108 c115 59 215 108 222 109 7 0 20 7 28 15 34 33
39 19 37 -98z"/>
<path d="M2231 4510 c-14 -10 -25 -45 -27 -90 -1 -25 -5 -52 -8 -60 -3 -8 -5
-31 -3 -49 5 -39 30 -54 77 -45 37 8 47 20 58 70 l8 39 185 -2 c102 -1 189 1
195 5 16 11 33 115 21 130 -8 10 -65 12 -254 10 -135 -2 -248 -5 -252 -8z"/>
<path d="M4588 4354 c-5 -4 -30 -9 -75 -13 -7 0 -13 -6 -13 -12 0 -11 46 -76
66 -94 7 -5 14 -36 16 -67 6 -71 19 -88 70 -88 72 0 78 9 78 110 0 77 -3 93
-20 110 -11 11 -27 20 -35 20 -8 0 -15 4 -15 8 0 5 -11 14 -25 20 -29 13 -39
15 -47 6z"/>
<path d="M4856 4343 c-3 -3 -26 -5 -51 -5 -40 1 -45 -1 -45 -21 0 -12 15 -38
32 -57 26 -28 35 -50 45 -103 6 -38 14 -72 18 -75 3 -4 32 -7 63 -7 l57 0 3
102 3 102 -43 29 c-49 32 -73 43 -82 35z"/>
<path d="M4026 2233 c-4 -5 -53 -9 -109 -10 -173 -2 -381 -15 -399 -24 -11 -6
-16 -22 -16 -51 -1 -24 -6 -63 -12 -88 -6 -25 -14 -55 -17 -67 -6 -26 10 -35
62 -36 41 -1 75 26 75 60 0 21 4 23 53 24 142 2 299 8 365 15 l72 7 1 36 c1
20 1 40 0 45 -1 5 3 22 10 38 9 22 9 31 -1 43 -13 16 -71 21 -84 8z"/>
<path d="M5645 5259 c-140 -51 -174 -61 -207 -60 -41 2 -44 -17 -7 -55 37 -38
59 -44 59 -14 0 21 27 40 57 40 11 0 36 -18 57 -39 37 -38 38 -40 26 -75 -9
-28 -17 -36 -35 -36 -13 0 -27 -5 -30 -10 -6 -10 80 -100 96 -100 5 0 9 13 9
29 0 30 19 78 89 232 12 25 21 51 21 56 0 6 7 16 15 23 8 7 15 21 15 31 0 28
-39 23 -165 -22z"/>
<path d="M1160 5087 c0 -7 -14 -26 -31 -43 -39 -36 -72 -108 -71 -151 4 -103
93 -187 197 -187 58 0 131 33 146 67 5 12 16 33 25 47 19 33 15 125 -6 125
-11 0 -16 -15 -20 -52 -7 -70 -55 -123 -111 -123 -118 0 -214 123 -163 209 21
36 33 42 98 50 27 3 51 11 53 16 4 12 -78 55 -102 55 -8 0 -15 -6 -15 -13z"/>
<path d="M5959 5063 c-1 -5 0 -18 0 -29 2 -17 -21 -36 -113 -92 -103 -64 -118
-70 -145 -62 -42 12 -40 -1 12 -79 23 -34 49 -75 58 -89 20 -35 93 -72 141
-72 77 0 155 51 185 120 12 29 12 45 2 95 -6 33 -18 67 -25 76 -8 8 -14 21
-14 27 0 7 -9 21 -19 31 -11 11 -27 34 -36 50 -14 28 -43 43 -46 24z m72 -145
c16 -26 19 -43 15 -83 -7 -63 -50 -108 -119 -127 -44 -11 -51 -11 -91 10 -38
21 -66 55 -66 82 0 9 180 131 210 143 26 10 30 8 51 -25z"/>
<path d="M931 4708 c-31 -64 -32 -91 -1 -63 16 15 23 13 86 -20 38 -19 74 -35
80 -35 15 0 76 -30 97 -48 9 -8 17 -24 17 -34 0 -30 22 -16 47 28 35 60 36 63
29 81 -5 12 -9 14 -18 5 -22 -22 -62 -12 -175 44 -96 48 -113 60 -113 80 0 40
-17 27 -49 -38z"/>
<path d="M6061 4618 c-48 -13 -80 -37 -112 -82 -62 -84 -20 -224 78 -265 71
-29 167 -5 230 59 86 86 55 227 -62 281 -44 20 -82 22 -134 7z m181 -95 c25
-23 29 -34 24 -62 -16 -101 -206 -173 -279 -106 -56 53 -26 131 68 177 77 37
142 34 187 -9z"/>
<path d="M852 4569 c-5 -13 -17 -49 -27 -79 -9 -30 -26 -79 -38 -107 -11 -29
-18 -55 -15 -58 3 -3 17 -1 32 5 21 8 41 5 96 -14 125 -44 190 -77 190 -97 0
-11 4 -19 8 -19 9 0 62 111 62 129 0 14 -27 15 -35 1 -10 -17 -62 -11 -104 11
l-41 21 15 35 c8 20 15 37 15 39 0 2 16 10 35 18 19 8 35 19 35 24 0 7 -104
42 -125 42 -11 0 -4 -28 9 -39 12 -10 12 -19 -1 -59 -9 -26 -17 -48 -17 -49
-6 -8 -92 27 -100 40 -15 24 29 111 65 128 35 17 27 36 -19 45 -27 5 -33 3
-40 -17z"/>
<path d="M3660 4483 c-65 -6 -73 -17 -67 -84 6 -52 5 -57 -18 -69 -31 -16 -34
-14 -43 41 -9 53 -31 60 -89 30 -54 -27 -67 -45 -58 -78 4 -16 9 -50 12 -78 6
-72 9 -93 21 -160 6 -33 10 -67 11 -75 0 -8 7 -64 16 -125 8 -60 20 -146 25
-190 6 -44 12 -91 15 -105 2 -14 7 -52 10 -85 3 -33 12 -97 21 -143 9 -46 14
-86 11 -89 -3 -2 -1 -17 4 -33 9 -23 5 -34 -22 -75 -38 -56 -49 -100 -56 -217
-4 -66 -2 -91 9 -101 7 -7 28 -36 47 -63 56 -80 136 -127 229 -132 38 -3 42
-1 42 21 0 22 -5 25 -57 31 -70 8 -133 52 -186 128 -34 50 -37 60 -37 126 0
67 12 108 51 172 38 64 38 59 18 200 -18 136 -20 154 -33 290 -4 41 -10 82
-13 90 -3 8 -7 26 -9 40 -2 14 -17 124 -34 245 -17 121 -30 232 -30 247 0 14
-4 38 -10 53 -11 29 1 55 25 55 10 0 24 -35 29 -74 1 -5 8 -13 17 -19 11 -7
31 -2 75 19 l59 29 -3 57 c-3 51 -2 57 19 63 36 12 50 -18 47 -100 l-3 -70
-60 -21 c-99 -34 -108 -41 -100 -77 8 -39 13 -67 20 -132 3 -27 10 -61 15 -75
4 -14 16 -70 25 -125 8 -55 20 -116 25 -135 4 -19 14 -66 20 -105 14 -87 29
-135 40 -135 7 0 55 25 88 45 3 3 -38 257 -45 275 -4 8 -5 19 -4 23 0 4 -3 16
-9 26 -5 11 -11 46 -14 79 -2 33 -7 65 -10 70 -12 20 -24 137 -15 147 6 6 44
19 87 30 l77 20 -3 80 c-2 44 -6 116 -10 160 l-7 80 -60 1 c-33 0 -80 -1 -105
-3z"/>
<path d="M6360 4273 c0 -5 -7 -16 -14 -26 -20 -26 -228 -80 -285 -74 l-43 5 6
-37 c3 -21 14 -53 23 -72 16 -31 18 -32 21 -11 2 14 14 27 29 33 39 15 101 27
107 22 8 -8 -10 -37 -44 -75 -17 -18 -30 -37 -30 -43 0 -6 -9 -16 -20 -23 -22
-13 -26 -54 -10 -96 12 -34 22 -33 38 3 7 16 31 57 54 90 35 53 43 59 57 49 9
-7 20 -19 24 -25 11 -18 72 -16 107 2 45 23 55 69 34 157 -9 40 -21 77 -25 83
-5 5 -9 17 -9 27 0 17 -20 27 -20 11z"/>
<path d="M781 4208 c-70 -36 -86 -66 -86 -156 0 -61 4 -83 20 -105 49 -69 176
-96 254 -55 63 32 81 62 87 141 5 56 2 72 -16 105 -45 79 -175 114 -259 70z
m154 -63 c87 -42 114 -120 61 -174 -24 -23 -34 -26 -99 -25 -57 0 -80 5 -110
23 -47 29 -57 48 -57 105 0 41 3 48 33 66 39 24 125 27 172 5z"/>
<path d="M3886 3436 c-20 -19 -57 -47 -83 -62 -100 -57 -105 -73 -30 -97 29
-9 68 -28 87 -42 19 -14 40 -25 47 -25 7 0 13 -4 13 -10 0 -5 6 -10 13 -10 17
0 77 -64 105 -111 30 -49 29 -114 -2 -181 -25 -54 -77 -118 -96 -118 -5 0 -10
-22 -10 -50 0 -37 -5 -54 -21 -68 -23 -23 -66 -33 -98 -25 -38 10 -25 -27 17
-43 20 -8 45 -19 54 -24 28 -16 56 -12 98 15 36 22 39 28 33 56 -5 26 0 37 39
77 113 119 142 180 139 296 -1 59 -6 77 -31 115 -17 25 -38 63 -46 83 -10 22
-28 41 -44 48 -15 6 -41 24 -57 39 -17 16 -39 31 -48 35 -14 5 -16 13 -10 39
13 55 11 69 -12 84 -20 14 -24 12 -57 -21z"/>
<path d="M6414 3219 c-42 -12 -109 -80 -113 -115 -16 -120 42 -203 153 -221
47 -7 99 12 147 56 40 35 41 39 44 107 3 67 2 73 -27 108 -16 20 -42 42 -56
50 -37 19 -111 26 -148 15z"/>
<path d="M603 3183 c-51 -34 -73 -78 -73 -144 0 -95 49 -152 142 -165 129 -18
235 124 178 236 -10 19 -28 42 -40 50 -13 8 -28 21 -36 28 -7 7 -39 15 -71 18
-52 4 -63 2 -100 -23z"/>
<path d="M3656 3163 c-48 -48 -86 -125 -86 -174 0 -40 17 -89 32 -89 4 0 8 -8
8 -18 0 -41 92 -95 158 -95 62 1 71 15 32 50 -133 116 -149 195 -57 285 29 29
34 47 15 66 -23 23 -63 13 -102 -25z"/>
<path d="M915 2296 c-104 -46 -149 -145 -109 -242 20 -50 88 -114 120 -114 33
0 30 16 -6 35 -42 22 -80 82 -80 126 0 61 57 121 133 139 78 19 125 -2 153
-69 16 -38 12 -62 -18 -104 -11 -16 -17 -31 -14 -35 4 -3 32 6 62 22 53 26 55
28 40 45 -9 10 -19 30 -22 45 -23 128 -147 201 -259 152z"/>
<path d="M6336 2248 c-13 -7 -78 -9 -198 -6 -98 3 -181 1 -184 -4 -5 -7 16
-32 102 -124 23 -25 125 -148 152 -184 6 -8 52 50 52 66 0 9 -10 14 -27 14
-15 0 -36 9 -48 20 l-22 21 21 59 21 60 47 0 c41 0 48 -3 48 -20 0 -11 7 -20
15 -20 8 0 15 6 15 14 0 7 9 25 20 39 19 24 28 77 13 77 -5 0 -17 -6 -27 -12z"/>
<path d="M5832 2020 c-18 -28 -32 -56 -32 -61 0 -11 21 -11 39 0 16 10 50 -2
96 -34 17 -11 43 -26 59 -33 16 -7 26 -16 22 -20 -4 -3 -42 -10 -84 -14 -184
-18 -214 -25 -238 -55 -13 -15 -23 -36 -24 -45 0 -21 2 -21 33 -7 28 13 48 4
174 -77 72 -46 82 -57 85 -85 4 -45 21 -46 38 -4 8 20 20 41 27 47 27 22 15
38 -27 36 -30 -1 -51 6 -83 29 -23 17 -52 33 -64 37 -25 8 -49 34 -40 43 4 3
21 6 39 5 18 -1 65 5 105 13 40 8 93 15 118 15 96 0 104 32 18 70 -25 11 -58
31 -75 45 -16 14 -34 25 -40 25 -5 0 -30 14 -54 32 -35 25 -44 37 -42 57 5 42
-17 34 -50 -19z"/>
<path d="M1215 2040 c-4 -6 -1 -17 5 -25 9 -11 7 -19 -13 -37 -14 -13 -38 -30
-54 -38 -15 -8 -30 -17 -33 -20 -3 -3 -27 -19 -54 -35 -95 -58 -88 -56 -113
-33 -31 29 -41 15 -18 -25 65 -112 86 -132 82 -80 -2 27 -4 26 169 140 51 33
87 42 99 23 9 -14 25 -12 25 3 0 13 -77 137 -85 137 -2 0 -7 -5 -10 -10z"/>
<path d="M1313 1855 c7 -37 -9 -58 -83 -110 -63 -43 -94 -76 -116 -122 -14
-29 -14 -35 5 -75 26 -56 39 -71 80 -92 42 -22 91 -15 146 22 22 15 42 30 45
34 3 3 23 21 45 38 32 26 45 30 72 25 43 -8 44 11 1 59 -37 42 -48 45 -48 14
-1 -23 -21 -58 -34 -58 -4 0 -28 -17 -54 -39 -52 -43 -102 -71 -128 -71 -9 0
-32 11 -51 26 -27 20 -33 32 -33 62 0 39 9 50 90 112 25 19 51 40 58 47 25 24
52 33 77 27 30 -7 34 10 8 38 -9 10 -21 28 -27 39 -6 12 -22 29 -35 38 -24 16
-24 16 -18 -14z"/>
<path d="M5505 1580 c-4 -6 0 -21 8 -33 8 -12 18 -37 21 -54 4 -17 14 -37 22
-44 8 -6 14 -18 14 -26 0 -8 11 -38 23 -66 13 -29 30 -73 37 -99 7 -27 18 -48
24 -48 19 0 79 67 71 80 -4 7 -11 8 -19 1 -14 -12 -26 -4 -48 30 -16 25 -15
26 27 72 45 50 58 54 100 35 26 -12 32 -23 15 -33 -17 -10 -11 -25 10 -25 11
0 20 7 20 15 0 8 4 15 9 15 11 0 63 53 65 66 0 5 -19 12 -44 15 -25 4 -110 30
-189 58 -158 56 -157 56 -166 41z"/>
<path d="M1557 1553 c-4 -3 -1 -16 7 -28 14 -21 10 -27 -57 -103 -40 -44 -80
-92 -90 -106 -11 -16 -27 -26 -42 -26 -40 0 -29 -21 41 -85 70 -64 107 -83
166 -84 41 -1 138 38 138 55 0 6 6 17 14 23 22 18 44 93 35 116 -4 11 -10 33
-14 50 -4 19 -36 58 -92 112 -85 83 -94 89 -106 76z m130 -155 c26 -44 27 -90
3 -137 -44 -88 -138 -117 -211 -68 -50 33 -48 54 13 118 29 31 64 70 77 85 50
61 83 62 118 2z"/>
<path d="M5291 1366 c-7 -8 -28 -22 -48 -31 -19 -9 -37 -24 -40 -34 -2 -9 -22
-29 -44 -45 -21 -17 -39 -33 -39 -37 0 -15 22 -21 33 -10 21 21 39 11 107 -61
118 -128 125 -137 111 -159 -29 -48 22 -40 62 9 11 13 36 34 56 46 38 25 81
96 81 137 0 48 -64 104 -106 93 -16 -4 -19 1 -21 28 -3 47 -42 78 -97 78 -25
0 -48 -6 -55 -14z"/>
<path d="M1955 1180 c-10 -11 -23 -20 -29 -20 -6 -1 -36 -16 -66 -35 -30 -19
-73 -43 -95 -55 -22 -11 -51 -27 -65 -35 -14 -8 -33 -15 -42 -15 -30 0 -20
-26 21 -53 l40 -26 3 26 c2 14 15 35 30 46 l28 21 42 -31 c23 -17 47 -38 52
-46 14 -22 -4 -69 -32 -83 -23 -11 -23 -12 22 -45 25 -18 46 -37 46 -42 0 -5
6 -7 12 -5 8 3 11 20 10 45 -2 23 6 72 18 110 12 37 23 77 25 88 17 89 31 135
39 135 5 0 1 9 -9 20 -10 11 -21 20 -25 20 -4 0 -15 -9 -25 -20z"/>
<path d="M4929 1103 c-1 -5 0 -12 1 -18 1 -5 6 -53 11 -105 5 -52 13 -126 19
-164 6 -47 6 -74 -1 -88 -15 -29 -8 -30 38 -8 48 23 59 43 33 62 -10 7 -21 27
-24 43 -6 28 -3 32 43 58 57 32 68 33 99 8 25 -21 28 -37 10 -44 -7 -2 -10 -8
-6 -12 8 -9 114 33 129 52 8 9 -1 18 -38 35 -26 12 -100 60 -163 105 -104 75
-148 97 -151 76z"/>
<path d="M2170 1050 c0 -5 7 -13 17 -18 15 -9 14 -15 -7 -68 -40 -103 -100
-205 -126 -214 -13 -5 -24 -17 -24 -25 0 -9 4 -14 9 -11 5 4 31 -4 58 -15 78
-35 146 -59 165 -59 54 0 158 58 158 88 0 5 7 15 15 22 18 15 21 135 4 145 -5
4 -14 17 -19 30 -10 26 -108 89 -183 116 -59 22 -67 23 -67 9z m191 -133 c35
-48 36 -69 8 -133 -30 -68 -62 -93 -121 -94 -51 0 -98 16 -98 34 0 6 23 58 50
114 28 56 50 106 50 110 0 5 5 13 11 19 19 19 68 -6 100 -50z"/>
<path d="M4679 967 c-65 -24 -96 -57 -54 -57 19 0 28 -7 35 -27 6 -16 15 -36
20 -45 19 -33 10 -44 -43 -61 -80 -25 -83 -24 -97 35 -12 47 -11 52 6 65 13 9
15 16 7 24 -8 8 -31 3 -82 -17 -72 -28 -84 -44 -41 -54 24 -6 37 -32 91 -193
19 -56 21 -71 11 -88 -7 -11 -10 -23 -8 -28 6 -9 113 24 133 41 16 13 7 28
-16 28 -24 0 -48 38 -53 81 -3 30 1 35 36 52 70 33 85 29 108 -31 19 -51 19
-54 2 -73 -25 -27 -10 -35 33 -17 21 9 51 19 67 24 34 10 37 25 8 39 -21 9
-30 24 -51 85 -66 190 -64 180 -46 200 16 17 14 41 -3 39 -4 0 -32 -10 -63
-22z"/>
<path d="M2673 838 c-3 -6 1 -16 10 -23 10 -7 17 -21 17 -31 -1 -22 -22 -104
-31 -119 -3 -5 -12 -39 -19 -73 -7 -35 -19 -66 -27 -68 -46 -14 -46 -14 -33
-29 7 -8 27 -15 45 -15 18 0 49 -7 68 -15 45 -19 128 -19 170 -1 79 34 131
142 108 223 -16 55 -117 133 -173 133 -13 0 -47 7 -75 14 -37 10 -55 11 -60 4z
m163 -69 c49 -18 79 -66 77 -122 -1 -58 -37 -131 -71 -146 -33 -16 -117 -14
-131 3 -11 13 -9 26 9 71 4 11 16 56 26 100 18 80 20 91 23 100 2 8 37 6 67
-6z"/>
<path d="M4017 708 c-10 -35 -30 -108 -44 -163 -14 -55 -31 -107 -39 -116 -8
-8 -14 -23 -14 -32 0 -13 9 -15 52 -11 28 2 53 6 56 9 3 2 -5 13 -18 23 -18
15 -21 24 -15 50 8 38 24 48 88 54 42 5 50 3 67 -20 24 -30 26 -51 5 -58 -8
-4 -15 -12 -15 -19 0 -9 14 -9 66 0 36 7 68 15 71 18 8 8 -6 27 -20 27 -7 0
-23 21 -37 47 -14 26 -46 79 -72 118 -27 38 -48 75 -48 81 0 13 -42 54 -56 54
-5 0 -18 -28 -27 -62z"/>
<path d="M3036 752 c-3 -6 4 -19 17 -29 23 -18 23 -20 11 -81 -7 -34 -13 -70
-13 -80 0 -9 -2 -35 -6 -57 -3 -22 -6 -47 -6 -56 0 -9 -12 -22 -26 -28 -20 -9
-23 -14 -13 -26 7 -8 26 -15 44 -14 17 0 70 -7 119 -16 101 -18 118 -13 134
39 16 53 -1 62 -40 20 -22 -24 -30 -26 -82 -21 -31 3 -62 10 -67 15 -6 6 -7
33 -3 67 l8 57 50 -5 c51 -7 69 -19 60 -44 -7 -18 27 -16 51 2 11 8 14 15 7
15 -7 0 -11 8 -10 18 4 40 -2 82 -11 82 -5 0 -10 -7 -10 -15 0 -28 -70 -32
-109 -6 -11 7 -12 19 -5 57 l9 49 50 -3 c66 -4 74 -7 85 -37 5 -14 14 -25 19
-25 19 0 31 37 22 63 -8 21 -20 27 -78 37 -37 6 -88 14 -113 16 -25 2 -55 6
-66 10 -12 3 -25 1 -28 -4z"/>
<path d="M3605 713 c-59 -5 -85 -12 -85 -23 0 -6 6 -10 14 -10 21 0 25 -11 31
-72 11 -104 5 -232 -11 -241 -39 -22 -7 -27 124 -21 153 7 168 14 174 74 2 26
-1 35 -14 38 -11 2 -19 -5 -23 -20 -8 -33 -34 -46 -91 -48 -87 -3 -81 -10 -83
88 -1 48 -2 103 -2 122 -2 71 1 82 21 87 24 6 26 19 4 27 -9 3 -16 5 -17 4 -1
-1 -20 -3 -42 -5z"/>
</g>
</svg>
